<svg xmlns="http://www.w3.org/2000/svg" xmlns:xlink="http://www.w3.org/1999/xlink" width="390.001" height="146" viewBox="0 0 390.001 146">
  <defs>
    <clipPath id="clip-path">
      <rect id="長方形_1928" data-name="長方形 1928" width="390" height="146" rx="10" transform="translate(-0.364 0)" fill="#fff" stroke="#008add" stroke-width="2"/>
    </clipPath>
  </defs>
  <g id="bnr_semminer" transform="translate(-2328.229 -15.847)">
    <g id="長方形_543" data-name="長方形 543" transform="translate(2328.229 15.847)" fill="#fff" stroke="#52be00" stroke-width="1">
      <rect width="390" height="146" stroke="none"/>
      <rect x="0.5" y="0.5" width="389" height="145" fill="none"/>
    </g>
    <g id="グループ_4137" data-name="グループ 4137" transform="translate(2328.593 132.738)">
      <rect id="長方形_544" data-name="長方形 544" width="390" height="30" transform="translate(-0.363 -1.89)" fill="#52be00"/>
      <text id="予約はこちらから" transform="translate(114.637 21.11)" fill="#fff" font-size="20" font-family="HiraKakuStd-W8, Hiragino Kaku Gothic Std"><tspan x="0" y="0">予約はこちらから</tspan></text>
    </g>
    <g id="マスクグループ_8" data-name="マスクグループ 8" transform="translate(2328.593 15.847)" clip-path="url(#clip-path)">
      <g id="アートワーク_25" data-name="アートワーク 25" transform="translate(311.969 67.575)">
        <g id="グループ_3956" data-name="グループ 3956" transform="translate(-82 -62.94)">
          <g id="グループ_3777" data-name="グループ 3777" transform="translate(0 33.022)">
            <path id="パス_12465" data-name="パス 12465" d="M74.743,390.274,1.46,429.529c-1.951,1.045-1.946,2.747.011,3.784l80.09,42.375a8.485,8.485,0,0,0,7.107-.016L161.92,436.48c1.952-1.045,1.948-2.747-.007-3.784L81.847,390.258A8.471,8.471,0,0,0,74.743,390.274Z" transform="translate(0 -389.485)" fill="#7377b7" opacity="0.3" style="mix-blend-mode: multiply;isolation: isolate"/>
          </g>
          <g id="グループ_3779" data-name="グループ 3779" transform="translate(15.226 76.79)">
            <path id="パス_12466" data-name="パス 12466" d="M572.823,1325.024s-1.361.635-3.78-.7l-3.912-2.213v-1.872l5.341,2.469Z" transform="translate(-532.443 -1285.09)" fill="#729093"/>
            <path id="パス_12467" data-name="パス 12467" d="M215.242,1108.409l1.21-.778-36.322-19.494a4.208,4.208,0,0,0,1.128,5.423l35.155,20.537h0C214.179,1112.361,215.242,1108.409,215.242,1108.409Z" transform="translate(-179.587 -1072.671)" fill="#c1dee1"/>
            <g id="グループ_3778" data-name="グループ 3778" transform="translate(0.544)">
              <path id="パス_12468" data-name="パス 12468" d="M617.751,1173.1,597.4,1186.171s-2.033,7.539,5.4,6.365l23.634-13.646s3.492-4.416-4.055-5.235Z" transform="translate(-562.284 -1150.432)" fill="#738e91"/>
              <path id="パス_12469" data-name="パス 12469" d="M620.385,1205.332s.072,3.814,4.358,1.559l21.608-12.475-4.762-2.646Z" transform="translate(-583.557 -1167.517)" fill="#97bdc0"/>
              <path id="パス_12470" data-name="パス 12470" d="M519.822,1121.265a4.435,4.435,0,0,0-1.351-.449s-.887-.561-4.607,1.549l-21.359,12.224-11.846-6.755,27.526-13.361Z" transform="translate(-455.677 -1096.774)" fill="#c1dee1"/>
              <path id="パス_12471" data-name="パス 12471" d="M213.015,905.715l-27.009,15.466,35.112,20.272,27.154-15.55Z" transform="translate(-186.006 -905.715)" fill="#f7fcfd"/>
            </g>
            <path id="パス_12472" data-name="パス 12472" d="M489.038,971.173l-24.309-14.035,4.049-2.337,24.554,13.81Z" transform="translate(-440.554 -950.639)" fill="#4a8db7"/>
            <path id="パス_12473" data-name="パス 12473" d="M550.659,1114.379l-16.434-9.5,1.377-.78,16.43,9.462Z" transform="translate(-504.158 -1087.278)" fill="#738e91"/>
            <path id="パス_12474" data-name="パス 12474" d="M518.022,1141.14,501.9,1131.8l1.377-.779,16.113,9.3Z" transform="translate(-474.578 -1111.921)" fill="#738e91"/>
            <path id="パス_12475" data-name="パス 12475" d="M485.516,1167.131l-15.787-9.243,1.378-.778,15.783,9.2Z" transform="translate(-445.13 -1135.796)" fill="#738e91"/>
            <path id="パス_12476" data-name="パス 12476" d="M276.968,1092.481,245.2,1074.01l1.377-.78,31.762,18.432Z" transform="translate(-239.639 -1059.028)" fill="#738e91"/>
            <path id="パス_12477" data-name="パス 12477" d="M289.5,1003.59l-8.236,4.566,14.205,8.26,7.795-4.846Z" transform="translate(-272.644 -995.292)" fill="#4a8db7"/>
          </g>
          <g id="グループ_3784" data-name="グループ 3784" transform="translate(6.154 14.061)">
            <g id="グループ_3782" data-name="グループ 3782">
              <path id="パス_12478" data-name="パス 12478" d="M98.514,166.847c-.157-.13-1.879-.9-1.879-.9h0a1.12,1.12,0,0,0-1.119.114L74.177,178.422a3.542,3.542,0,0,0-1.592,2.764l.026,43.087a1.181,1.181,0,0,0,.388.975l0,0,.007,0a.766.766,0,0,0,.259.126l1.878.911.082-1.673L95.511,213a3.52,3.52,0,0,0,1.6-2.756V167.5Z" transform="translate(-72.585 -165.849)" fill="#0b0021"/>
              <path id="パス_12479" data-name="パス 12479" d="M94.439,234.621c0,1.013.72,1.429,1.6.926l21.3-12.2a3.522,3.522,0,0,0,1.6-2.756V177.333c0-1.013-.717-1.426-1.593-.919L96,188.771a3.538,3.538,0,0,0-1.592,2.764Z" transform="translate(-92.562 -175.32)" fill="#180737"/>
              <path id="パス_12480" data-name="パス 12480" d="M113.588,270.219c0,.879.625,1.24,1.387.8l18.479-10.585a3.056,3.056,0,0,0,1.386-2.391l.011-34.326c0-.879-.622-1.237-1.382-.8l-18.511,10.72a3.07,3.07,0,0,0-1.381,2.4Z" transform="translate(-110.102 -217.914)" fill="#050211"/>
              <path id="パス_12481" data-name="パス 12481" d="M123.006,288.118c0,.812.577,1.146,1.283.743l17.092-9.79a2.825,2.825,0,0,0,1.281-2.211l.011-31.748c0-.812-.575-1.144-1.278-.737l-17.121,9.915a2.841,2.841,0,0,0-1.278,2.217Z" transform="translate(-118.721 -237.558)" fill="#d1dbdf"/>
              <path id="パス_12482" data-name="パス 12482" d="M136.644,782.956l-.59-.339v0a.257.257,0,0,0-.3.011l-3.468,2.066a.9.9,0,0,0-.4.7v1.539a.282.282,0,0,0,.11.252h0l.005,0h0a4.87,4.87,0,0,0,.617.357c.059.015.057-.3.041-.608l3.087-1.8a.89.89,0,0,0,.4-.693v-1.009l.356.113Z" transform="translate(-126.857 -730.286)" fill="#0e0229"/>
              <path id="パス_12483" data-name="パス 12483" d="M139.225,791.176c0,.253.179.356.4.228l3.466-2.026a.889.889,0,0,0,.4-.693V787.1c0-.253-.178-.354-.4-.224l-3.468,2.066a.9.9,0,0,0-.4.7Z" transform="translate(-133.575 -734.171)" fill="#240d49"/>
              <path id="パス_12484" data-name="パス 12484" d="M205.429,751.812l-.589-.34,0,0a.257.257,0,0,0-.3.011l-2.358,1.387a.9.9,0,0,0-.4.7v1.539a.279.279,0,0,0,.111.251h0l.006,0,0,0a4.889,4.889,0,0,0,.616.357c.059.015.057-.3.041-.608l1.976-1.126a.886.886,0,0,0,.4-.693v-1.01l.356.113Z" transform="translate(-190.826 -701.782)" fill="#0e0229"/>
              <path id="パス_12485" data-name="パス 12485" d="M209.131,759.353c0,.253.178.356.4.228l2.355-1.347a.89.89,0,0,0,.4-.693v-1.586c0-.253-.178-.354-.4-.224l-2.358,1.387a.9.9,0,0,0-.395.7Z" transform="translate(-197.554 -705.667)" fill="#240d49"/>
              <g id="グループ_3780" data-name="グループ 3780" transform="translate(15.581 47.197)">
                <path id="パス_12486" data-name="パス 12486" d="M260.011,722.909l-.589-.339,0,0a.258.258,0,0,0-.3.011l-2.358,1.387a.9.9,0,0,0-.4.7V726.2a.281.281,0,0,0,.111.252h0l.006,0h0a4.964,4.964,0,0,0,.616.357c.059.014.057-.3.041-.608l1.977-1.126a.891.891,0,0,0,.4-.693v-1.01l.356.113Z" transform="translate(-256.362 -722.528)" fill="#0e0229"/>
                <path id="パス_12487" data-name="パス 12487" d="M263.706,730.446c0,.254.179.356.4.228l2.356-1.347a.888.888,0,0,0,.4-.693v-1.585c0-.253-.178-.354-.4-.224l-2.359,1.386a.9.9,0,0,0-.4.7Z" transform="translate(-263.083 -726.409)" fill="#240d49"/>
              </g>
              <g id="グループ_3781" data-name="グループ 3781" transform="translate(20.147 44.43)">
                <path id="パス_12488" data-name="パス 12488" d="M313.866,690.27l-.59-.34,0,0a.257.257,0,0,0-.3.011l-2.359,1.387a.9.9,0,0,0-.395.7v1.54a.28.28,0,0,0,.11.251h0l0,0,0,0a4.943,4.943,0,0,0,.617.357c.059.015.057-.3.042-.607l1.976-1.126a.89.89,0,0,0,.4-.692v-1.01l.356.113Z" transform="translate(-310.217 -689.888)" fill="#0e0229"/>
                <path id="パス_12489" data-name="パス 12489" d="M317.553,697.807c0,.253.179.355.4.228l2.355-1.347a.892.892,0,0,0,.4-.692V694.41c0-.253-.177-.354-.395-.225l-2.358,1.387a.9.9,0,0,0-.4.7Z" transform="translate(-316.931 -693.769)" fill="#240d49"/>
              </g>
            </g>
            <g id="グループ_3783" data-name="グループ 3783" transform="translate(6.051 12.745)">
              <path id="パス_12490" data-name="パス 12490" d="M143.971,402.512l5.364-3.1,0-5.5-5.361,3.1Z" transform="translate(-143.97 -387.326)" fill="#79919c"/>
              <path id="パス_12491" data-name="パス 12491" d="M224.947,317.542l-10.722,6.217v-1.373l10.722-6.217Z" transform="translate(-208.268 -316.168)" fill="#79919c"/>
              <path id="パス_12492" data-name="パス 12492" d="M224.958,350.523l-10.721,6.217v-1.374l10.721-6.217Z" transform="translate(-208.279 -346.352)" fill="#79919c"/>
              <path id="パス_12493" data-name="パス 12493" d="M224.958,383.507l-10.721,6.217V388.35l10.721-6.217Z" transform="translate(-208.279 -376.54)" fill="#79919c"/>
              <path id="パス_12494" data-name="パス 12494" d="M160.64,416.487l-16.681,9.7v-1.374l16.681-9.7Z" transform="translate(-143.959 -406.725)" fill="#79919c"/>
              <path id="パス_12495" data-name="パス 12495" d="M160.651,449.472l-16.68,9.7V457.8l16.68-9.7Z" transform="translate(-143.97 -436.912)" fill="#79919c"/>
              <path id="パス_12496" data-name="パス 12496" d="M160.659,482.452l-16.68,9.7v-1.374l16.68-9.7Z" transform="translate(-143.977 -467.097)" fill="#79919c"/>
            </g>
          </g>
          <g id="グループ_3812" data-name="グループ 3812" transform="translate(88.733 75.365)">
            <g id="グループ_3785" data-name="グループ 3785" transform="translate(0 2.44)">
              <path id="パス_12497" data-name="パス 12497" d="M1065.306,1137.419l-18.729-11.063v-1.469l75.267,8.079v1.469l-30.636,17.688-19.613-11.077A6.1,6.1,0,0,1,1065.306,1137.419Z" transform="translate(-1046.577 -1107.319)" fill="#3e6f99"/>
              <path id="パス_12498" data-name="パス 12498" d="M1065.836,946.371l-19.259-11.123,30.637-17.568,44.63,25.647-30.637,17.688L1072.125,950A6.1,6.1,0,0,1,1065.836,946.371Z" transform="translate(-1046.577 -917.68)" fill="#67a5cc"/>
              <path id="パス_12499" data-name="パス 12499" d="M1309.432,1050.372l-29.406,18.344a6.1,6.1,0,0,1-6.288-3.627l30.515-17.694Z" transform="translate(-1254.478 -1036.397)" fill="#2a5778"/>
            </g>
            <path id="パス_12500" data-name="パス 12500" d="M1077.4,927.437l42.02,24.178,28.09-16.21v-2.973l-38.27-23.407-31.84,15.4Z" transform="translate(-1074.784 -907.318)" fill="#adc0c7"/>
            <path id="パス_12501" data-name="パス 12501" d="M1077.4,1090.407l.059-.028,10.156,2.262,9.54,9.354,13.675,2.605,8.623,9.984-.033,3.01-42.02-24.178Z" transform="translate(-1074.784 -1073.297)" fill="#79919c"/>
            <path id="パス_12502" data-name="パス 12502" d="M1077.4,1086.782s11.8-2.368,16.892,4.977c3.265,4.71,2.862,6.611,2.862,6.611S1088.563,1088.577,1077.4,1086.782Z" transform="translate(-1074.784 -1069.672)" fill="#627a86"/>
            <path id="パス_12503" data-name="パス 12503" d="M1332.691,1231.226s-2.088-7.55-8.2-11.364c-3.426-2.139-9.089-2.668-14.1-1.225A38.043,38.043,0,0,1,1332.691,1231.226Z" transform="translate(-1288.026 -1189.939)" fill="#627a86"/>
            <path id="パス_12504" data-name="パス 12504" d="M1077.4,906.012s12.44-2.612,19.755,11.588c0,0,14.312-4.407,22.3,12.589l28.057-16.174c-8.479-15.022-20.227-13.6-21.339-13.211,0,0-4.106-12.828-17.249-11.849Z" transform="translate(-1074.784 -888.903)" fill="#d1dbdf"/>
            <path id="パス_12505" data-name="パス 12505" d="M1338.925,1027.863l.041.121a2.029,2.029,0,0,1,.248-.064l-28.883,16.76c-.247.059-.382.1-.382.1l-.041-.079Z" transform="translate(-1287.583 -1016.082)" fill="#31495f"/>
            <g id="グループ_3798" data-name="グループ 3798" transform="translate(7.41 1.6)">
              <g id="グループ_3786" data-name="グループ 3786" transform="translate(0 13.585)">
                <path id="パス_12506" data-name="パス 12506" d="M1135.128,1068a20.516,20.516,0,0,1,5.482,1.421,16.591,16.591,0,0,1,9.64,9.756l-.729.266a15.55,15.55,0,0,0-9.178-9.292,20.3,20.3,0,0,0-6.368-1.469Z" transform="translate(-1133.975 -1067.996)" fill="#79919c"/>
              </g>
              <g id="グループ_3787" data-name="グループ 3787" transform="translate(2.18 12.35)">
                <path id="パス_12507" data-name="パス 12507" d="M1160.839,1053.434a20.517,20.517,0,0,1,5.482,1.421,16.591,16.591,0,0,1,9.64,9.756l-.729.267a15.553,15.553,0,0,0-9.179-9.294,20.257,20.257,0,0,0-6.369-1.469Z" transform="translate(-1159.686 -1053.434)" fill="#79919c"/>
              </g>
              <g id="グループ_3788" data-name="グループ 3788" transform="translate(4.359 11.115)">
                <path id="パス_12508" data-name="パス 12508" d="M1186.546,1038.863a20.558,20.558,0,0,1,5.483,1.421,16.592,16.592,0,0,1,9.64,9.756l-.729.266a15.558,15.558,0,0,0-9.178-9.294,20.293,20.293,0,0,0-6.369-1.469Z" transform="translate(-1185.393 -1038.863)" fill="#79919c"/>
              </g>
              <g id="グループ_3789" data-name="グループ 3789" transform="translate(6.539 9.88)">
                <path id="パス_12509" data-name="パス 12509" d="M1212.25,1024.3a20.521,20.521,0,0,1,5.482,1.422,16.593,16.593,0,0,1,9.641,9.756l-.729.267a15.555,15.555,0,0,0-9.179-9.294,20.3,20.3,0,0,0-6.37-1.469Z" transform="translate(-1211.095 -1024.297)" fill="#79919c"/>
              </g>
              <g id="グループ_3790" data-name="グループ 3790" transform="translate(8.719 8.645)">
                <path id="パス_12510" data-name="パス 12510" d="M1237.964,1009.731a20.538,20.538,0,0,1,5.483,1.421,16.592,16.592,0,0,1,9.64,9.756l-.729.267a15.554,15.554,0,0,0-9.179-9.294,20.285,20.285,0,0,0-6.369-1.469Z" transform="translate(-1236.811 -1009.731)" fill="#79919c"/>
              </g>
              <g id="グループ_3791" data-name="グループ 3791" transform="translate(10.899 7.41)">
                <path id="パス_12511" data-name="パス 12511" d="M1263.676,995.168a20.528,20.528,0,0,1,5.482,1.421,16.59,16.59,0,0,1,9.64,9.757l-.728.266a15.551,15.551,0,0,0-9.179-9.293,20.313,20.313,0,0,0-6.368-1.469Z" transform="translate(-1262.522 -995.168)" fill="#79919c"/>
              </g>
              <g id="グループ_3792" data-name="グループ 3792" transform="translate(13.079 6.175)">
                <path id="パス_12512" data-name="パス 12512" d="M1289.386,980.606a20.51,20.51,0,0,1,5.482,1.42,16.594,16.594,0,0,1,9.64,9.757l-.728.266a15.554,15.554,0,0,0-9.179-9.294,20.3,20.3,0,0,0-6.368-1.469Z" transform="translate(-1288.233 -980.606)" fill="#79919c"/>
              </g>
              <g id="グループ_3793" data-name="グループ 3793" transform="translate(15.258 4.94)">
                <path id="パス_12513" data-name="パス 12513" d="M1315.09,966.035a20.542,20.542,0,0,1,5.482,1.421,16.594,16.594,0,0,1,9.641,9.756l-.729.266a15.552,15.552,0,0,0-9.179-9.294,20.278,20.278,0,0,0-6.369-1.469Z" transform="translate(-1313.936 -966.035)" fill="#79919c"/>
              </g>
              <g id="グループ_3794" data-name="グループ 3794" transform="translate(17.438 3.705)">
                <path id="パス_12514" data-name="パス 12514" d="M1340.8,951.469a20.516,20.516,0,0,1,5.483,1.421,16.6,16.6,0,0,1,9.641,9.757l-.728.266a15.554,15.554,0,0,0-9.179-9.293,20.292,20.292,0,0,0-6.369-1.469Z" transform="translate(-1339.651 -951.469)" fill="#79919c"/>
              </g>
              <g id="グループ_3795" data-name="グループ 3795" transform="translate(19.618 2.47)">
                <path id="パス_12515" data-name="パス 12515" d="M1366.511,936.9a20.533,20.533,0,0,1,5.482,1.421,16.6,16.6,0,0,1,9.64,9.757l-.729.266a15.551,15.551,0,0,0-9.178-9.294,20.309,20.309,0,0,0-6.369-1.469Z" transform="translate(-1365.358 -936.902)" fill="#79919c"/>
              </g>
              <g id="グループ_3796" data-name="グループ 3796" transform="translate(21.797 1.235)">
                <path id="パス_12516" data-name="パス 12516" d="M1392.222,922.332a20.551,20.551,0,0,1,5.482,1.421,16.592,16.592,0,0,1,9.64,9.756l-.729.266a15.551,15.551,0,0,0-9.178-9.294,20.315,20.315,0,0,0-6.368-1.469Z" transform="translate(-1391.069 -922.332)" fill="#79919c"/>
              </g>
              <g id="グループ_3797" data-name="グループ 3797" transform="translate(23.977)">
                <path id="パス_12517" data-name="パス 12517" d="M1417.929,907.77a20.552,20.552,0,0,1,5.483,1.421,16.591,16.591,0,0,1,9.64,9.756l-.728.266a15.554,15.554,0,0,0-9.178-9.294,20.3,20.3,0,0,0-6.369-1.469Z" transform="translate(-1416.776 -907.77)" fill="#79919c"/>
              </g>
            </g>
            <g id="グループ_3811" data-name="グループ 3811" transform="translate(28.654 13.002)">
              <g id="グループ_3799" data-name="グループ 3799" transform="translate(0 13.585)">
                <path id="パス_12518" data-name="パス 12518" d="M1385.7,1202.481a20.5,20.5,0,0,1,5.482,1.421,16.6,16.6,0,0,1,9.64,9.757l-.729.267a15.551,15.551,0,0,0-9.179-9.3,20.322,20.322,0,0,0-6.369-1.469Z" transform="translate(-1384.542 -1202.481)" fill="#79919c"/>
              </g>
              <g id="グループ_3800" data-name="グループ 3800" transform="translate(2.18 12.35)">
                <path id="パス_12519" data-name="パス 12519" d="M1411.413,1187.918a20.525,20.525,0,0,1,5.482,1.421,16.59,16.59,0,0,1,9.64,9.756l-.728.267a15.551,15.551,0,0,0-9.179-9.293,20.287,20.287,0,0,0-6.368-1.47Z" transform="translate(-1410.26 -1187.918)" fill="#79919c"/>
              </g>
              <g id="グループ_3801" data-name="グループ 3801" transform="translate(4.36 11.115)">
                <path id="パス_12520" data-name="パス 12520" d="M1437.118,1173.348a20.56,20.56,0,0,1,5.482,1.421,16.591,16.591,0,0,1,9.64,9.756l-.729.267a15.549,15.549,0,0,0-9.178-9.294,20.287,20.287,0,0,0-6.369-1.47Z" transform="translate(-1435.964 -1173.348)" fill="#79919c"/>
              </g>
              <g id="グループ_3802" data-name="グループ 3802" transform="translate(6.539 9.88)">
                <path id="パス_12521" data-name="パス 12521" d="M1462.825,1158.785a20.519,20.519,0,0,1,5.482,1.421,16.592,16.592,0,0,1,9.641,9.756l-.729.267a15.552,15.552,0,0,0-9.178-9.294,20.261,20.261,0,0,0-6.369-1.469Z" transform="translate(-1461.671 -1158.785)" fill="#79919c"/>
              </g>
              <g id="グループ_3803" data-name="グループ 3803" transform="translate(8.719 8.645)">
                <path id="パス_12522" data-name="パス 12522" d="M1488.538,1144.219a20.512,20.512,0,0,1,5.482,1.421,16.6,16.6,0,0,1,9.64,9.757l-.728.266a15.553,15.553,0,0,0-9.178-9.294,20.3,20.3,0,0,0-6.369-1.469Z" transform="translate(-1487.385 -1144.219)" fill="#79919c"/>
              </g>
              <g id="グループ_3804" data-name="グループ 3804" transform="translate(10.899 7.41)">
                <path id="パス_12523" data-name="パス 12523" d="M1514.242,1129.652a20.553,20.553,0,0,1,5.483,1.421,16.6,16.6,0,0,1,9.64,9.756l-.73.267a15.551,15.551,0,0,0-9.179-9.295,20.29,20.29,0,0,0-6.368-1.469Z" transform="translate(-1513.089 -1129.652)" fill="#79919c"/>
              </g>
              <g id="グループ_3805" data-name="グループ 3805" transform="translate(13.078 6.175)">
                <path id="パス_12524" data-name="パス 12524" d="M1539.95,1115.09a20.526,20.526,0,0,1,5.482,1.421,16.6,16.6,0,0,1,9.641,9.756l-.729.267a15.556,15.556,0,0,0-9.178-9.3,20.282,20.282,0,0,0-6.369-1.468Z" transform="translate(-1538.796 -1115.09)" fill="#79919c"/>
              </g>
              <g id="グループ_3806" data-name="グループ 3806" transform="translate(15.258 4.941)">
                <path id="パス_12525" data-name="パス 12525" d="M1565.663,1100.527a20.542,20.542,0,0,1,5.483,1.42,16.6,16.6,0,0,1,9.64,9.757l-.728.267a15.555,15.555,0,0,0-9.179-9.294,20.3,20.3,0,0,0-6.368-1.469Z" transform="translate(-1564.51 -1100.527)" fill="#79919c"/>
              </g>
              <g id="グループ_3807" data-name="グループ 3807" transform="translate(17.438 3.705)">
                <path id="パス_12526" data-name="パス 12526" d="M1591.368,1085.957a20.553,20.553,0,0,1,5.482,1.421,16.6,16.6,0,0,1,9.641,9.756l-.729.267a15.549,15.549,0,0,0-9.179-9.293,20.289,20.289,0,0,0-6.369-1.47Z" transform="translate(-1590.214 -1085.957)" fill="#79919c"/>
              </g>
              <g id="グループ_3808" data-name="グループ 3808" transform="translate(19.618 2.47)">
                <path id="パス_12527" data-name="パス 12527" d="M1617.082,1071.387a20.566,20.566,0,0,1,5.482,1.421,16.6,16.6,0,0,1,9.641,9.757l-.729.266a15.553,15.553,0,0,0-9.179-9.294,20.284,20.284,0,0,0-6.368-1.469Z" transform="translate(-1615.928 -1071.387)" fill="#79919c"/>
              </g>
              <g id="グループ_3809" data-name="グループ 3809" transform="translate(21.798 1.235)">
                <path id="パス_12528" data-name="パス 12528" d="M1642.792,1056.824a20.55,20.55,0,0,1,5.482,1.421,16.591,16.591,0,0,1,9.641,9.756l-.729.266a15.549,15.549,0,0,0-9.179-9.293,20.288,20.288,0,0,0-6.368-1.47Z" transform="translate(-1641.639 -1056.824)" fill="#79919c"/>
              </g>
              <g id="グループ_3810" data-name="グループ 3810" transform="translate(23.978)">
                <path id="パス_12529" data-name="パス 12529" d="M1668.5,1042.254a20.56,20.56,0,0,1,5.483,1.422,16.592,16.592,0,0,1,9.641,9.756l-.729.266a15.556,15.556,0,0,0-9.179-9.294,20.285,20.285,0,0,0-6.368-1.469Z" transform="translate(-1667.35 -1042.254)" fill="#79919c"/>
              </g>
            </g>
          </g>
          <g id="グループ_3815" data-name="グループ 3815" transform="translate(98.827 3.183)">
            <g id="グループ_3813" data-name="グループ 3813" transform="translate(7.368 0)">
              <path id="パス_12530" data-name="パス 12530" d="M1314.932,44.692v5.341L1332.97,60.2s4.432-.078,4.549-3.064Z" transform="translate(-1309.642 -44.086)" fill="#67248e"/>
              <path id="パス_12531" data-name="パス 12531" d="M1285.042,67.889l3.67-2.151,21.128,12.2s-1.958,2.3-4.227,1.763Z" transform="translate(-1282.286 -63.348)" fill="#fff"/>
              <path id="パス_12532" data-name="パス 12532" d="M1307.448,95.4a3.29,3.29,0,0,1-1.834.119l-20.572-11.809,1.168-.686Z" transform="translate(-1282.286 -79.171)" fill="#abb9bc"/>
              <path id="パス_12533" data-name="パス 12533" d="M1526.67,231.142l-.007-38.255,3.784-1.88,1.5-2.39v39.489S1531.448,231.129,1526.67,231.142Z" transform="translate(-1503.422 -175.809)" fill="#450d79"/>
              <path id="パス_12534" data-name="パス 12534" d="M1257.828,38.153l21.974,12.66s-.062,2.642-4.023,2.592L1253.6,40.593l-1.065.614,23.242,13.418s5.571.432,5.282-4.27l-22.185-12.808Z" transform="translate(-1252.538 -37.547)" fill="#3a0164"/>
              <path id="パス_12535" data-name="パス 12535" d="M1252.537,80.715v38.219l23.247,13.453-.006-38.255Z" transform="translate(-1252.537 -77.055)" fill="#67248e"/>
              <path id="パス_12536" data-name="パス 12536" d="M1483.667,252.4l-1.137-.658-.008-38.251,1.145.661Z" transform="translate(-1463.023 -198.571)" fill="#450d79"/>
            </g>
            <g id="グループ_3814" data-name="グループ 3814" transform="translate(0 4.37)">
              <path id="パス_12537" data-name="パス 12537" d="M1228.026,96.235v5.341l18.039,10.166s4.432-.078,4.549-3.063Z" transform="translate(-1222.736 -95.63)" fill="#650017"/>
              <path id="パス_12538" data-name="パス 12538" d="M1198.128,119.432l3.672-2.151,21.128,12.2s-1.958,2.3-4.226,1.763Z" transform="translate(-1195.374 -114.891)" fill="#fff"/>
              <path id="パス_12539" data-name="パス 12539" d="M1199.36,134.145l21.391,12.407a5.014,5.014,0,0,1-2.049.124l-20.574-11.81Z" transform="translate(-1195.374 -130.325)" fill="#abb9bc"/>
              <path id="パス_12540" data-name="パス 12540" d="M1439.77,282.688l-.006-38.254,3.783-1.88,1.5-2.389v39.489S1444.548,282.676,1439.77,282.688Z" transform="translate(-1416.522 -227.356)" fill="#7d001b"/>
              <path id="パス_12541" data-name="パス 12541" d="M1170.925,89.7l21.975,12.66s-.062,2.642-4.023,2.592L1166.7,92.14l-1.064.614,23.242,13.418s5.57.432,5.282-4.27l-22.184-12.808Z" transform="translate(-1165.635 -89.094)" fill="#9c001e"/>
              <path id="パス_12542" data-name="パス 12542" d="M1165.635,132.258v38.219l23.247,13.454-.006-38.255Z" transform="translate(-1165.635 -128.598)" fill="#ca0a24"/>
              <path id="パス_12543" data-name="パス 12543" d="M1396.757,303.944l-1.137-.658-.008-38.251,1.145.661Z" transform="translate(-1376.114 -250.118)" fill="#9c001e"/>
            </g>
          </g>
          <g id="グループ_3820" data-name="グループ 3820" transform="translate(39.327 22.009)">
            <g id="グループ_3817" data-name="グループ 3817" transform="translate(0 21.006)">
              <path id="パス_12544" data-name="パス 12544" d="M1194.6,776.18l-2.291,1.325v5.8l1.893-.688,1.06-.871.568-3.052Z" transform="translate(-1130.549 -753.388)" fill="#734c07"/>
              <path id="パス_12545" data-name="パス 12545" d="M463.991,581.641l26.1-16.649,37.944,23.756-25.975,15.109Z" transform="translate(-463.979 -560.105)" fill="#e2bb35"/>
              <g id="グループ_3816" data-name="グループ 3816" transform="translate(38.965 23.928)">
                <path id="パス_12546" data-name="パス 12546" d="M947.263,789.574v4.534L923.428,807.89v-4.55Z" transform="translate(-923.428 -789.574)" fill="#fffdfd"/>
              </g>
              <path id="パス_12547" data-name="パス 12547" d="M530.361,719.591v4.55l-36.4-21.09-.017-4.984Z" transform="translate(-491.396 -681.897)" fill="#fffdfd"/>
              <path id="パス_12548" data-name="パス 12548" d="M554.271,699.282l-23.86,14.2L494.03,692.051V689.41l60.354,7.357Z" transform="translate(-491.471 -673.975)" fill="#abb9bc"/>
              <path id="パス_12549" data-name="パス 12549" d="M465.768,522l25.375-14.652,38.287,21.969-25.868,14.9Z" transform="translate(-465.605 -507.352)" fill="#e2bb35"/>
              <path id="パス_12550" data-name="パス 12550" d="M527.675,687.478l-25.868,14.895L464.012,680.16V681.4l37.78,22.359,25.883-14.934a6.129,6.129,0,0,1,.216,5.33l-25.976,15.109L463.85,687.044v1.237L501.8,710.594l26.087-15.1s1.243-.782,1.243-4.052C529.133,690.281,528.981,688.483,527.675,687.478Z" transform="translate(-463.85 -665.509)" fill="#956e11"/>
            </g>
            <g id="グループ_3818" data-name="グループ 3818" transform="translate(1.499 9.078)">
              <path id="パス_12551" data-name="パス 12551" d="M947.4,635.265l-13.892-8.144-12.439,12.155-.163,12.531Z" transform="translate(-883.653 -605.039)" fill="#4d000b"/>
              <path id="パス_12552" data-name="パス 12552" d="M944.915,630.215V638.1L920.9,652.264,921,643.83Z" transform="translate(-883.653 -607.87)" fill="#fffdfd"/>
              <path id="パス_12553" data-name="パス 12553" d="M921.78,645.538l23.937-13.761v-1.561L921.8,643.83Z" transform="translate(-884.454 -607.87)" fill="#abb9bc"/>
              <path id="パス_12554" data-name="パス 12554" d="M520.885,366.664,495.049,381.58l35.632,20.733,25.975-15Z" transform="translate(-493.903 -366.664)" fill="#fa3b40"/>
              <path id="パス_12555" data-name="パス 12555" d="M482.677,542.59a15.549,15.549,0,0,0-.164,11.282l35.8,20.847v-11.4Z" transform="translate(-481.531 -527.674)" fill="#c90f0f"/>
              <path id="パス_12556" data-name="パス 12556" d="M941.291,610.25v.823l-25.976,15.145v-.972Z" transform="translate(-878.537 -589.598)" fill="#90060a"/>
              <path id="パス_12557" data-name="パス 12557" d="M916.45,790.793s-1.135,6.5,0,9.089l-1.135.655v-9.082Z" transform="translate(-878.537 -754.834)" fill="#90060a"/>
              <path id="パス_12558" data-name="パス 12558" d="M915.315,738.652l26.968-15.476v1.148l-26.968,15.67Z" transform="translate(-878.537 -692.95)" fill="#90060a"/>
              <path id="パス_12559" data-name="パス 12559" d="M905.353,787.129s-2.077,7.937,0,11.4Z" transform="translate(-868.575 -751.48)" fill="#90060a"/>
              <path id="パス_12560" data-name="パス 12560" d="M518.5,522.863l35.77,20.652.994-.574L519.5,522.289Z" transform="translate(-515.368 -509.095)" fill="#de1416"/>
            </g>
            <g id="グループ_3819" data-name="グループ 3819" transform="translate(1.963)">
              <path id="パス_12561" data-name="パス 12561" d="M953.653,505.708l-11.428-6.661-14.9,13.936-.162,9.268Z" transform="translate(-889.841 -478.745)" fill="#255572"/>
              <path id="パス_12562" data-name="パス 12562" d="M951.17,523.145v4.618l-24.011,14.167.092-5.17Z" transform="translate(-889.841 -500.799)" fill="#fffdfd"/>
              <path id="パス_12563" data-name="パス 12563" d="M951.17,523.145v4.618l-24.011,14.167.092-5.17Z" transform="translate(-889.841 -500.799)" fill="#fffdfd"/>
              <path id="パス_12564" data-name="パス 12564" d="M951.824,525.125v-1.981l-23.918,13.615-.032,1.8Z" transform="translate(-890.495 -500.799)" fill="#abb9bc"/>
              <path id="パス_12565" data-name="パス 12565" d="M527.146,259.59l-25.835,14.916,35.631,20.733,25.975-15Z" transform="translate(-500.098 -259.59)" fill="#4a8db7"/>
              <path id="パス_12566" data-name="パス 12566" d="M488.215,435.52a7.8,7.8,0,0,0-.164,8.018l35.8,20.847v-8.132Z" transform="translate(-487.002 -420.604)" fill="#214a7f"/>
              <path id="パス_12567" data-name="パス 12567" d="M947.544,503.18V504l-25.975,15.145v-.973Z" transform="translate(-884.724 -482.527)" fill="#356f95"/>
              <path id="パス_12568" data-name="パス 12568" d="M922.7,683.723s-1.134,3.238,0,5.825l-1.134.655v-5.818Z" transform="translate(-884.725 -647.763)" fill="#356f95"/>
              <path id="パス_12569" data-name="パス 12569" d="M921.569,593.086l26.968-15.476v1.148l-26.968,15.67Z" transform="translate(-884.724 -550.646)" fill="#356f95"/>
              <path id="パス_12570" data-name="パス 12570" d="M911.606,680.055s-2.076,4.673,0,8.132Z" transform="translate(-874.762 -644.406)" fill="#356f95"/>
              <path id="パス_12571" data-name="パス 12571" d="M524.745,415.792l35.771,20.652.993-.574-35.77-20.652Z" transform="translate(-521.544 -402.024)" fill="#356f95"/>
            </g>
          </g>
          <g id="グループ_3832" data-name="グループ 3832" transform="translate(97.636 36.896)">
            <g id="グループ_3831" data-name="グループ 3831" transform="translate(0 0.156)">
              <path id="パス_12572" data-name="パス 12572" d="M1153.057,558.672a18.226,18.226,0,0,0-1.468,3.772s.08.655.445.839,3.694,2.646,3.694,2.646l.289-.917s-2.7-2.447-3.066-2.691l1.388-2.548Z" transform="translate(-1151.589 -548.358)" fill="#e67a48"/>
              <path id="パス_12573" data-name="パス 12573" d="M1163.843,511.367a3.047,3.047,0,0,0-2.045.734,23.928,23.928,0,0,0-2.327,4.206,2.918,2.918,0,0,0,2.044,1.021s1.537-2.154,2.065-2.852S1163.843,511.367,1163.843,511.367Z" transform="translate(-1158.803 -505.064)" fill="#a30008"/>
              <g id="グループ_3830" data-name="グループ 3830" transform="translate(3.066)">
                <path id="パス_12574" data-name="パス 12574" d="M1195.963,908.823a1.558,1.558,0,0,0-.005,1.739s.312.344.921-.025a1.2,1.2,0,0,1,.995,0,1.749,1.749,0,0,0,1.924-.584s.2-.4-.312-.461a5.725,5.725,0,0,1-2.321-.809Z" transform="translate(-1195.039 -868.695)" fill="#fa97b3"/>
                <path id="パス_12575" data-name="パス 12575" d="M1197.928,820.707h2.52c-.627,2.709-1.345,7.7-1.345,7.7a.84.84,0,0,1-1.118,0C1198.055,827.2,1197.953,821.876,1197.928,820.707Z" transform="translate(-1197.065 -788.177)" fill="#fc9e6d"/>
                <path id="パス_12576" data-name="パス 12576" d="M1237.611,923.195a1.56,1.56,0,0,0,0,1.739s.312.344.921-.024a1.191,1.191,0,0,1,1,0,1.745,1.745,0,0,0,1.924-.585s.2-.4-.312-.459a5.726,5.726,0,0,1-2.319-.81Z" transform="translate(-1233.156 -881.847)" fill="#fa97b3"/>
                <path id="パス_12577" data-name="パス 12577" d="M1240.254,882.5c.018,1.566.025,3.1-.009,3.682,0,0,.349.252,1.182-.057,0,0,.222-1.684.533-3.625Z" transform="translate(-1235.795 -844.734)" fill="#fc9e6d"/>
                <path id="パス_12578" data-name="パス 12578" d="M1188.428,672.063s-1.186,1.693-.412,5.136a45.07,45.07,0,0,1,.6,4.492,32.12,32.12,0,0,0-.188,6.209s-.111,3.105,0,3.76c.047.28,1.068.367,1.468,0,0,0,1.709-7.859,1.813-8.645s-.171-4.638-.222-5.214l.21.127s.758,4.3.856,5.034a45.907,45.907,0,0,0-.41,10.174,3.42,3.42,0,0,0,1.3,0s2.3-9.179,2.355-10.069a21.114,21.114,0,0,0,.289-2.568c0-1.912-.425-8.115-.425-8.115Z" transform="translate(-1187.754 -652.135)" fill="#464a89"/>
                <g id="グループ_3829" data-name="グループ 3829" transform="translate(0.262)">
                  <g id="グループ_3828" data-name="グループ 3828">
                    <g id="グループ_3827" data-name="グループ 3827">
                      <g id="グループ_3826" data-name="グループ 3826">
                        <path id="パス_12579" data-name="パス 12579" d="M1291.153,473.286c-.6.32-9.479,4.921-9.479,4.921l.491,2.234s3.843-2.639,4.9-3.227c0,0,4.323-2.976,4.558-3.262C1292.194,473.253,1291.581,473.057,1291.153,473.286Z" transform="translate(-1273.973 -470.128)" fill="#fc9e6d"/>
                        <g id="グループ_3825" data-name="グループ 3825">
                          <g id="グループ_3824" data-name="グループ 3824">
                            <g id="グループ_3823" data-name="グループ 3823">
                              <g id="グループ_3822" data-name="グループ 3822">
                                <path id="パス_12580" data-name="パス 12580" d="M1196.405,512.332s1.136.278,1.659.359a13.936,13.936,0,0,1,1.359,3.725,3.779,3.779,0,0,1-1.217,2.327c-.371.29.6,2.534.7,7.085a8.447,8.447,0,0,1-5.433.708,6.363,6.363,0,0,1-2.629-1.127s.508-2.153.974-4.294a8.226,8.226,0,0,0-.288-3.543c-.848-3.437-.344-5.175.2-5.921,0,0,.346-.5,1.467-.183Z" transform="translate(-1190.842 -505.063)" fill="#f72959"/>
                                <path id="パス_12581" data-name="パス 12581" d="M1217,515.69s.444.228.45.5c.01.569-3.211.663-3.772-.663,0,0-.229-.613.931-.342Z" transform="translate(-1211.727 -508.498)" fill="#2c0039"/>
                                <g id="グループ_3821" data-name="グループ 3821" transform="translate(1.212)">
                                  <path id="パス_12582" data-name="パス 12582" d="M1209.4,437.671a3.272,3.272,0,0,1,.566,1.416s.272,1.4.306,1.693a9.908,9.908,0,0,1-.037,1.691.528.528,0,0,1-.29.233,3.256,3.256,0,0,1-.717.127,10.1,10.1,0,0,0,.032,1.589c.089.718-2.39.393-2.779-.288,0,0,.2-1.48,0-1.67a10.9,10.9,0,0,1-1.231-2.155,2.561,2.561,0,0,1,1.132-3.017A2.874,2.874,0,0,1,1209.4,437.671Z" transform="translate(-1205.133 -437.023)" fill="#fc9e6d"/>
                                  <path id="パス_12583" data-name="パス 12583" d="M1222.366,486.762a6.555,6.555,0,0,0-.763-.876c-.192-.118-1.213.556-1.213.556l-.105.645.059.083c.2.189,0,1.669,0,1.669.387.682,2.867,1.006,2.778.288a10.078,10.078,0,0,1-.032-1.589,3.253,3.253,0,0,0,.718-.128.611.611,0,0,0,.116-.055A1.762,1.762,0,0,1,1222.366,486.762Z" transform="translate(-1218.999 -481.73)" fill="#d25d31" opacity="0.5"/>
                                </g>
                              </g>
                            </g>
                          </g>
                          <path id="パス_12584" data-name="パス 12584" d="M1259.12,517.51a24.19,24.19,0,0,1-2.685,1.678c-1.516.74-4.465.506-2.958-1.8,0,0,.155-.663,2.405-1.516,1.026-.39,1.368-.357,1.992-.583A2.1,2.1,0,0,1,1259.12,517.51Z" transform="translate(-1247.784 -508.657)" fill="#a30008"/>
                        </g>
                      </g>
                    </g>
                  </g>
                </g>
              </g>
              <path id="パス_12585" data-name="パス 12585" d="M1392.186,455.583a3.974,3.974,0,0,1,.258-.773.29.29,0,0,1,.183-.222,4.084,4.084,0,0,1,.486-.1s1.073-.605,1.164-.7c0,0,.156.026,0,.236s-.538.472-.551.524.118.163.145.209.2.275.184.367c0,0,.1.081.013.309a1.787,1.787,0,0,1-.2.411,2.354,2.354,0,0,1-.6.222,1.392,1.392,0,0,1-.5.125Z" transform="translate(-1371.788 -452.368)" fill="#fc9e6d"/>
            </g>
            <path id="パス_12586" data-name="パス 12586" d="M1207.824,435.962a.648.648,0,0,1-.02.908,4.325,4.325,0,0,0-.43,1.659c-.021.118-.163.071-.306,0s-.525-.282-.653.072a8.537,8.537,0,0,1-.55,1.443c-.166.189-.708,1.047-1.042.73a7.919,7.919,0,0,1-1.426-2.207,2.629,2.629,0,0,1,1.221-2.907S1205.925,434.4,1207.824,435.962Z" transform="translate(-1198.942 -435.179)" fill="#701402"/>
            <path id="パス_12587" data-name="パス 12587" d="M1206.359,447.579a2.1,2.1,0,0,1-1.319-1.385,2.33,2.33,0,0,0-.93-1.4,2.845,2.845,0,0,0-.708,2.574,7.942,7.942,0,0,0,1.426,2.207c.334.317.876-.541,1.042-.73A6.359,6.359,0,0,0,1206.359,447.579Z" transform="translate(-1198.945 -443.982)" fill="#600c02"/>
            <path id="パス_12588" data-name="パス 12588" d="M1213.878,443.7s.126-.188.292-.176a.65.65,0,0,1,.327.1c.064.042.016,1-.564.551Z" transform="translate(-1208.596 -442.817)" fill="#fee5ec"/>
            <path id="パス_12589" data-name="パス 12589" d="M1239.957,472.079s-.6-.341-.823-.215c-.18.1-.189.728.63,1.06Z" transform="translate(-1231.621 -468.728)" fill="#fc9e6d"/>
            <path id="パス_12590" data-name="パス 12590" d="M1195.011,444.72a1.587,1.587,0,0,0-1.731,1.113,19.68,19.68,0,0,0,0,7c.138.685.647,3.182.609,3.494s.472.075.678-.351a2.969,2.969,0,0,0,.3-1.327s.095.711.143.64a3.6,3.6,0,0,0,.274-1.848c-.155-.782-1.522-7.987-.2-8.295C1195.089,445.145,1195.218,444.863,1195.011,444.72Z" transform="translate(-1189.46 -443.905)" fill="#871906"/>
            <path id="パス_12591" data-name="パス 12591" d="M1198.454,741.369a1.2,1.2,0,0,0,.753-.243s1.709-7.859,1.813-8.645-.17-4.638-.223-5.214a2.383,2.383,0,0,1-1.249-.886c-.427-.663-1.631.095-1.621.19a23.793,23.793,0,0,0,.911,4.075c.474,1.09.5,5.118.366,6.066C1199.093,737.522,1198.581,740.433,1198.454,741.369Z" transform="translate(-1193.998 -701.445)" fill="#333b77"/>
            <path id="パス_12592" data-name="パス 12592" d="M1238.886,910.975a2.461,2.461,0,0,1-.239.645,1.1,1.1,0,0,1-1.427,0s-.08-1.238.154-1.262a8.377,8.377,0,0,0,1.543,0S1239.125,910.329,1238.886,910.975Z" transform="translate(-1229.948 -870.068)" fill="#747fbb"/>
            <path id="パス_12593" data-name="パス 12593" d="M1196.078,894.459a.255.255,0,0,1,.173.294c-.055.213-.192.78-.383.9s-.684.539-1.364-.24c0,0-.217-1.063-.045-1.229A1.927,1.927,0,0,0,1196.078,894.459Z" transform="translate(-1190.765 -855.268)" fill="#747fbb"/>
          </g>
          <g id="グループ_3849" data-name="グループ 3849" transform="translate(25.157 30.543)">
            <g id="グループ_3847" data-name="グループ 3847" transform="translate(1.96 0)">
              <path id="パス_12594" data-name="パス 12594" d="M334.944,465.535l-1.737,3.207s-1.034,1.6-.354,1.732c0,0,.589,1.039,3.4-3.93Z" transform="translate(-331.537 -456.608)" fill="#fc9e6d"/>
              <g id="グループ_3835" data-name="グループ 3835" transform="translate(2.5 6.452)">
                <g id="グループ_3834" data-name="グループ 3834">
                  <g id="グループ_3833" data-name="グループ 3833">
                    <path id="パス_12595" data-name="パス 12595" d="M349.319,440.177l1.076-2.809a1.549,1.549,0,0,1,1.434-1.019c.935.055,1.062,1.323.643,2.1a11.41,11.41,0,0,1-1.462,2.7A3.081,3.081,0,0,1,349.319,440.177Z" transform="translate(-349.319 -436.347)" fill="#8e4e1d"/>
                  </g>
                </g>
              </g>
              <g id="グループ_3846" data-name="グループ 3846" transform="translate(3.093)">
                <path id="パス_12596" data-name="パス 12596" d="M426.757,805.376s-.221,2.413-.262,2.7a2.008,2.008,0,0,0,.58,1.035s1.251-.413,1.371-1.326a8.9,8.9,0,0,0-.335-2.577Z" transform="translate(-420.544 -767.485)" fill="#550901"/>
                <g id="グループ_3845" data-name="グループ 3845">
                  <g id="グループ_3844" data-name="グループ 3844" transform="translate(0 1.36)">
                    <path id="パス_12597" data-name="パス 12597" d="M361.237,782.691l1.284-.1a2.316,2.316,0,0,1,.049,1.729l-.29.968-.239.046a6.44,6.44,0,0,0-.073-.88,2.2,2.2,0,0,0-.992.651s-.128.2-.661.283c-.922.151-1.5.223-1.661.094-.191-.153-.09-.27.3-.56A12.88,12.88,0,0,0,361.237,782.691Z" transform="translate(-358.37 -748.141)" fill="#550901"/>
                    <g id="グループ_3837" data-name="グループ 3837" transform="translate(0.579 17.098)">
                      <g id="グループ_3836" data-name="グループ 3836">
                        <path id="パス_12598" data-name="パス 12598" d="M366.482,580.107l-.74,7.671s.723,2.371.778,2.789.316,4.715.316,4.715-.236.962-1.74.219c0,0-1.179-5.128-1.625-6.865-.717-2.8-.037-10.691-.037-10.691Z" transform="translate(-363.143 -577.945)" fill="#07090a"/>
                      </g>
                    </g>
                    <g id="グループ_3839" data-name="グループ 3839" transform="translate(1.474 16.73)">
                      <g id="グループ_3838" data-name="グループ 3838">
                        <path id="パス_12599" data-name="パス 12599" d="M379.972,593.431s-.292.575-1.719.1c0,0-.433-4.858-.788-6.785a19.8,19.8,0,0,1-1.2-3.246c-.13-.662-1.575-4.72-1.931-6.6a23.131,23.131,0,0,1-.641-3.148c.045-.556,5.3.69,5.3.69a9.6,9.6,0,0,0-.05,2.209c.073,2.154-.207,5.563-.1,5.741a29.106,29.106,0,0,1,1.077,3.294C380.046,586.269,379.972,593.431,379.972,593.431Z" transform="translate(-373.69 -573.611)" fill="#0b1310"/>
                      </g>
                    </g>
                    <path id="パス_12600" data-name="パス 12600" d="M356.907,449a4.611,4.611,0,0,0,3.368,1.255,5.829,5.829,0,0,0,3.213-1.365s-.633-2.57-1.068-4.508c0,0,.542-1.572.926-2.646.26-.724,1.148-3.031.286-3.439,0,0,.2-.3-1.938-1.4a11.91,11.91,0,0,0-3.927-.506s-1.108,3.582-1.348,3.994c0,0-.583,1.083.951,2.2,0,0,.153,1.372.288,2.127A23.667,23.667,0,0,1,356.907,449Z" transform="translate(-356.309 -431.253)" fill="#8e4e1d"/>
                    <path id="パス_12601" data-name="パス 12601" d="M430.344,490.793l-.237,3.669s-.1,1.871.566,1.685c0,0,.994-.119,1.29-5.034Z" transform="translate(-423.846 -481.084)" fill="#fc9e6d"/>
                    <path id="パス_12602" data-name="パス 12602" d="M381.482,539.691s-.972-.134-4.714.978c0,0-.614.227-.04.5,0,0,4.537.21,4.873-.276C382.052,540.241,381.854,539.893,381.482,539.691Z" transform="translate(-374.772 -525.832)" fill="#fc9e6d"/>
                    <g id="グループ_3841" data-name="グループ 3841" transform="translate(1.687)">
                      <g id="グループ_3840" data-name="グループ 3840">
                        <path id="パス_12603" data-name="パス 12603" d="M388.579,411.828a10.413,10.413,0,0,1-.1,1.429s.245.483.446.588a4.1,4.1,0,0,0,2.21-1.4,4.932,4.932,0,0,1-.052-2.685l-.289-.135Z" transform="translate(-387.435 -406.802)" fill="#f98754"/>
                        <path id="パス_12604" data-name="パス 12604" d="M391.737,409.764a6.106,6.106,0,0,0-.135,1.666c-1.168,1.355-1.971,1.446-2.408,1.325.045-.5.043-.926.043-.926l2.21-2.2Z" transform="translate(-388.093 -406.802)" fill="#d25d31"/>
                        <path id="パス_12605" data-name="パス 12605" d="M376.381,377.112l-.172,1.309a14.715,14.715,0,0,0,.094,1.845,4.47,4.47,0,0,0,.364,1.312,1.11,1.11,0,0,0,.809.1,3.256,3.256,0,0,0,1.717-1.023,4.161,4.161,0,0,0,.474-1.08s.106.244.281-.064a2.02,2.02,0,0,0,.194-1.08c-.051-.18-.291-.1-.347-.1s-.141.076-.188.256.189-1.22-.182-1.7A1.985,1.985,0,0,0,376.381,377.112Z" transform="translate(-376.208 -376.281)" fill="#fc9e6d"/>
                      </g>
                    </g>
                    <g id="グループ_3843" data-name="グループ 3843" transform="translate(5.996 6.707)">
                      <g id="グループ_3842" data-name="グループ 3842">
                        <path id="パス_12606" data-name="パス 12606" d="M427.32,460.009l-.288-2.994a1.548,1.548,0,0,1,.828-1.551c.862-.368,1.54.711,1.51,1.589a11.4,11.4,0,0,1-.1,3.071A3.081,3.081,0,0,1,427.32,460.009Z" transform="translate(-427.026 -455.39)" fill="#8e4e1d"/>
                      </g>
                    </g>
                  </g>
                  <path id="パス_12607" data-name="パス 12607" d="M391.334,363.093s-1.27.77-1.366,1.773c-.039.411,1.582,2.236,2.291,2.641a8.325,8.325,0,0,0,.238,2.351,7.229,7.229,0,0,0,1.608.969,17.688,17.688,0,0,1-.426-3.018C393.709,366.848,394.926,363.047,391.334,363.093Z" transform="translate(-387.113 -362.852)" fill="#1a0b0a"/>
                  <path id="パス_12608" data-name="パス 12608" d="M377.23,362.171a7.928,7.928,0,0,1-1.287.641l-.043.32a3.551,3.551,0,0,1-.092-1.246c.087-.594,1.8-2.326,3.267-1.347Z" transform="translate(-374.133 -360.245)" fill="#1a0b0a"/>
                </g>
              </g>
              <path id="パス_12609" data-name="パス 12609" d="M321.757,505.731l-1.926,1.038.964.468a11.394,11.394,0,0,0,2.113-.881Z" transform="translate(-319.831 -493.396)" fill="#fc9e6d"/>
            </g>
            <g id="グループ_3848" data-name="グループ 3848" transform="translate(0 9.879)">
              <path id="パス_12610" data-name="パス 12610" d="M304.228,479.011l.087,1.249h-4.48l-1.4-1.91.446-.4,1.184,1.375Z" transform="translate(-298.29 -477.845)" fill="#fff5f8"/>
              <path id="パス_12611" data-name="パス 12611" d="M303.1,478.377l-.22-.164-4.621.3-1.3-1.753h-.243l1.392,2.251s2.766-.058,2.882-.1S303.1,478.377,303.1,478.377Z" transform="translate(-296.717 -476.762)" fill="#f7527e"/>
              <path id="パス_12612" data-name="パス 12612" d="M324.763,501.981l-4.435.359-.61-6.176,4.435-.359Z" transform="translate(-317.767 -494.19)" fill="#ca0a24"/>
              <path id="パス_12613" data-name="パス 12613" d="M298.008,478.59l-1.291-1.828.527,6.238,1.4,1.689Z" transform="translate(-296.717 -476.762)" fill="#ca0a24"/>
              <path id="パス_12614" data-name="パス 12614" d="M312.6,498.466a1.058,1.058,0,0,1-.659-.146l.636,6.1s.076.268.634.223Z" transform="translate(-310.653 -496.492)" fill="#8b0019"/>
            </g>
            <path id="パス_12615" data-name="パス 12615" d="M398.282,415.149a3.342,3.342,0,0,0-.222,1.31c.089.468.108,2.849-.572,3.3a1.867,1.867,0,0,0-.936,1.307s.541-.786,1.145-.887,1.407-.788,1.441-1.207.223-1.856.254-2.026A12.762,12.762,0,0,0,398.282,415.149Z" transform="translate(-388.084 -410.494)" fill="#1a0b0a"/>
            <path id="パス_12616" data-name="パス 12616" d="M364.494,411.594a3.522,3.522,0,0,0-.354,2.2,3.316,3.316,0,0,1-.393,2.207,1.24,1.24,0,0,0-.338.793.9.9,0,0,1,.542-.625,2.467,2.467,0,0,0,1.168-1.576c.05-.5.058-.6.058-.6a1.045,1.045,0,0,1-.33-.594C364.734,412.952,364.483,411.678,364.494,411.594Z" transform="translate(-357.755 -407.24)" fill="#1a0b0a"/>
            <path id="パス_12617" data-name="パス 12617" d="M362.231,547.525s-.5-.221-.525-.254-.2-.017-.33.019a1.639,1.639,0,0,0-.468.192c-.025.051.017.06.138.043a1.948,1.948,0,0,1,.33,0s-.975.157-1.038.571c-.024.156.5.441.991.441a2.511,2.511,0,0,0,.963-.454Z" transform="translate(-354.943 -531.399)" fill="#fc9e6d"/>
            <path id="パス_12618" data-name="パス 12618" d="M298.563,526.45a.458.458,0,0,0-.124.288,1.535,1.535,0,0,0,.2.632c.085.071.7.463.791.07.083-.368-.15-.42-.428-.631,0,0-.213-.118-.157-.183s.407-.092.375-.176S298.7,526.4,298.563,526.45Z" transform="translate(-298.293 -512.311)" fill="#fc9e6d"/>
          </g>
          <g id="グループ_3864" data-name="グループ 3864" transform="translate(68.086 83.215)">
            <g id="グループ_3859" data-name="グループ 3859" transform="translate(0 0)">
              <path id="パス_12619" data-name="パス 12619" d="M889.457,1438.3s.929,2.4.973,2.72a2.174,2.174,0,0,1-.63,1.126,1.589,1.589,0,0,1-1.232-1.22c-.131-.992-.21-2.723-.21-2.723Z" transform="translate(-881.126 -1399.479)" fill="#0d051b"/>
              <g id="グループ_3850" data-name="グループ 3850" transform="translate(6.983 7.967)">
                <path id="パス_12620" data-name="パス 12620" d="M885.421,1075.469a3.748,3.748,0,0,1,.968.711,15.219,15.219,0,0,1,1.2,2.018l1.541,2.117s3.765-1.151,4.234-1.36c0,0,.737-.24.311.756,0,0-3.993,2.378-4.907,2.142-1.391-.358-3.292-3.259-3.292-3.259Z" transform="translate(-885.421 -1075.469)" fill="#fc9e6d"/>
                <path id="パス_12621" data-name="パス 12621" d="M976.424,1098.792a1.634,1.634,0,0,1,.463-.622c.357-.314.3-.565.774-.728l.591-.3s.532.025-.251.732c0,0,.548-.178.7.111a1.448,1.448,0,0,1-.093,1.3c-.357.61-2.141.4-2.141.4S976.162,1099.148,976.424,1098.792Z" transform="translate(-968.612 -1095.307)" fill="#fc9e6d"/>
              </g>
              <g id="グループ_3858" data-name="グループ 3858">
                <g id="グループ_3852" data-name="グループ 3852" transform="translate(5.052 6.756)">
                  <g id="グループ_3851" data-name="グループ 3851">
                    <path id="パス_12622" data-name="パス 12622" d="M866.626,1064.542l-1.733-2.618a1.172,1.172,0,0,0-1.432-.686,1.4,1.4,0,0,0-.44,2.254,7.738,7.738,0,0,0,1.952,2.037A2.027,2.027,0,0,0,866.626,1064.542Z" transform="translate(-862.645 -1061.183)" fill="#449d97"/>
                  </g>
                </g>
                <g id="グループ_3857" data-name="グループ 3857">
                  <g id="グループ_3856" data-name="グループ 3856" transform="translate(0 1.419)">
                    <path id="パス_12623" data-name="パス 12623" d="M811.788,1415.086l-1.3-.339a2.414,2.414,0,0,0-.372,1.767l.119,1.049.238.091a6.708,6.708,0,0,1,.236-.89s.363.122.9.852c0,0,.1.223.628.412.919.324,1.5.506,1.688.4.226-.121.144-.26-.208-.632A13.474,13.474,0,0,1,811.788,1415.086Z" transform="translate(-809.509 -1379.432)" fill="#0c070c"/>
                    <g id="グループ_3853" data-name="グループ 3853" transform="translate(0.855 17.845)">
                      <path id="パス_12624" data-name="パス 12624" d="M816.224,1210.968l-.567,7.67s-1.181,2.3-1.315,2.722-1.2,4.783-1.2,4.783.065,1.032,1.748.549c0,0,2.16-5.051,2.94-6.752,1.255-2.741,1.575-11.229,1.575-11.229Z" transform="translate(-813.143 -1208.711)" fill="#090614"/>
                    </g>
                    <path id="パス_12625" data-name="パス 12625" d="M803.934,1212.77a5.663,5.663,0,0,0-.614,4.442,36.434,36.434,0,0,0,3.4,6.064,11.113,11.113,0,0,0,.348,2.613c.288.638,3.245,6.718,3.245,6.718s1.025.3,1.266-.277-2.611-9.98-2.821-10.849-.629-6.15-.786-6.412c0,0,1.518-1.1,1.518-1.621S803.934,1212.77,803.934,1212.77Z" transform="translate(-803.079 -1194.581)" fill="#0c070c"/>
                    <path id="パス_12626" data-name="パス 12626" d="M810.462,1074.136a4.816,4.816,0,0,1-3.517,1.31,6.087,6.087,0,0,1-3.353-1.426s.661-2.683,1.115-4.706c0,0-.565-1.639-.967-2.762-.27-.754-1.2-3.164-.3-3.588,0,0-.205-.312,2.024-1.458a12.372,12.372,0,0,1,4.1-.526s1.158,3.737,1.408,4.167c0,0,.608,1.129-.992,2.293,0,0-.16,1.432-.3,2.22A24.7,24.7,0,0,0,810.462,1074.136Z" transform="translate(-803.058 -1055.614)" fill="#55bcb6"/>
                    <g id="グループ_3855" data-name="グループ 3855" transform="translate(2.143)">
                      <g id="グループ_3854" data-name="グループ 3854">
                        <path id="パス_12627" data-name="パス 12627" d="M834.127,1035.324a10.954,10.954,0,0,0,.109,1.493,1.914,1.914,0,0,1-.466.613,4.282,4.282,0,0,1-2.306-1.458,5.158,5.158,0,0,0,.054-2.8l.3-.142Z" transform="translate(-831.198 -1030.077)" fill="#f98754"/>
                        <path id="パス_12628" data-name="パス 12628" d="M832.1,1033.169a6.466,6.466,0,0,1,.141,1.738c1.218,1.415,2.056,1.51,2.514,1.383-.048-.522-.046-.966-.046-.966l-2.307-2.3Z" transform="translate(-831.784 -1030.077)" fill="#d25d31"/>
                        <path id="パス_12629" data-name="パス 12629" d="M832.273,999.1l.179,1.365a15.217,15.217,0,0,1-.1,1.927,4.652,4.652,0,0,1-.379,1.369,1.154,1.154,0,0,1-.844.108,3.393,3.393,0,0,1-1.793-1.068,4.285,4.285,0,0,1-.493-1.127s-.112.253-.3-.067a2.112,2.112,0,0,1-.2-1.129c.054-.186.3-.107.363-.107s.147.082.2.269-.2-1.275.19-1.772A2.073,2.073,0,0,1,832.273,999.1Z" transform="translate(-828.329 -998.231)" fill="#fc9e6d"/>
                      </g>
                    </g>
                  </g>
                  <path id="パス_12630" data-name="パス 12630" d="M817.4,984.469s1.326.8,1.426,1.85c.039.429-1.652,2.334-2.391,2.756a8.765,8.765,0,0,1-.249,2.454,5.506,5.506,0,0,1-1.415.817,13.006,13.006,0,0,0,.5-2.874C815.238,988.469,813.646,984.421,817.4,984.469Z" transform="translate(-813.775 -984.216)" fill="#1a0b0a"/>
                  <path id="パス_12631" data-name="パス 12631" d="M838.816,983.506a8.176,8.176,0,0,0,1.344.668l.047.36a3.944,3.944,0,0,0,.093-1.326c-.091-.621-1.878-2.429-3.411-1.4Z" transform="translate(-834.021 -981.495)" fill="#1a0b0a"/>
                </g>
              </g>
            </g>
            <g id="グループ_3860" data-name="グループ 3860" transform="translate(0.855 9.805)">
              <path id="パス_12632" data-name="パス 12632" d="M813.143,1097.145a3.744,3.744,0,0,1,.969.711,15.231,15.231,0,0,1,1.2,2.017l1.848,3.1s3.764-1.15,4.233-1.358c0,0,.738-.241.313.755,0,0-3.993,2.378-4.907,2.143-1.391-.358-3.6-4.246-3.6-4.246Z" transform="translate(-813.143 -1097.145)" fill="#fc9e6d"/>
            </g>
            <g id="グループ_3862" data-name="グループ 3862" transform="translate(0 8.404)">
              <g id="グループ_3861" data-name="グループ 3861">
                <path id="パス_12633" data-name="パス 12633" d="M807.043,1085.388l-1.562-3.492a1.614,1.614,0,0,0-1.317-1.278c-.973-.092-1.306,1.2-1,2.059a10.06,10.06,0,0,0,1.111,3.45A5.374,5.374,0,0,0,807.043,1085.388Z" transform="translate(-803.056 -1080.613)" fill="#55bcb6"/>
              </g>
            </g>
            <g id="グループ_3863" data-name="グループ 3863" transform="translate(9.317 8.576)">
              <path id="パス_12634" data-name="パス 12634" d="M925.448,1085.085l-.094,1.355h4.858l1.517-2.072-.483-.439-1.284,1.49Z" transform="translate(-924.302 -1083.822)" fill="#fff5f8"/>
              <path id="パス_12635" data-name="パス 12635" d="M920.753,1084.4l.237-.177,5.01.329,1.414-1.9h.262l-1.509,2.441s-3-.063-3.125-.111S920.753,1084.4,920.753,1084.4Z" transform="translate(-920.091 -1082.649)" fill="#f7527e"/>
              <path id="パス_12636" data-name="パス 12636" d="M912.944,1109.99l4.809.389.662-6.7-4.809-.389Z" transform="translate(-912.944 -1101.543)" fill="#ca0a24"/>
              <path id="パス_12637" data-name="パス 12637" d="M978.468,1084.63l1.4-1.982-.572,6.763-1.516,1.832Z" transform="translate(-972.283 -1082.649)" fill="#ca0a24"/>
              <path id="パス_12638" data-name="パス 12638" d="M970.325,1106.178a1.146,1.146,0,0,0,.714-.158l-.688,6.613s-.083.291-.688.242Z" transform="translate(-964.854 -1104.039)" fill="#8b0019"/>
            </g>
            <path id="パス_12639" data-name="パス 12639" d="M907.77,1132.121a1.625,1.625,0,0,1,.464-.622c.355-.315.3-.565.773-.728l.592-.3s.533.026-.251.732c0,0,.549-.179.705.11a1.448,1.448,0,0,1-.093,1.3c-.358.61-2.142.4-2.142.4S907.507,1132.477,907.77,1132.121Z" transform="translate(-898.795 -1117.842)" fill="#fc9e6d"/>
          </g>
          <g id="グループ_3887" data-name="グループ 3887" transform="translate(131.558 41.317)">
            <g id="グループ_3886" data-name="グループ 3886" transform="translate(0 1.063)">
              <g id="グループ_3871" data-name="グループ 3871" transform="translate(5.79 15.307)">
                <path id="パス_12640" data-name="パス 12640" d="M1699.7,918.288s-.266,2.753-.319,3.126a2.579,2.579,0,0,0,.745,1.33s1.6-.532,1.759-1.7a11.43,11.43,0,0,0-.429-3.307Z" transform="translate(-1692.653 -897.613)" fill="#0d051b"/>
                <g id="グループ_3870" data-name="グループ 3870">
                  <g id="グループ_3869" data-name="グループ 3869">
                    <g id="グループ_3868" data-name="グループ 3868">
                      <g id="グループ_3867" data-name="グループ 3867">
                        <g id="グループ_3865" data-name="グループ 3865">
                          <path id="パス_12641" data-name="パス 12641" d="M1658.8,918.288l-.582-.167.5-.386.154.347Z" transform="translate(-1654.976 -897.612)" fill="#0c070c"/>
                          <path id="パス_12642" data-name="パス 12642" d="M1623.812,895.6l0,.129.993-.363a5.469,5.469,0,0,0-.115-2.281l-1.932.185-.284.772s-1.191.979-2,1.484c0,0-.534.307-.485.716,0,0,.155.75,1.374.352,0,0,.864-.3,1.471-.556C1622.833,896.039,1623.493,895.55,1623.812,895.6Z" transform="translate(-1619.985 -875.054)" fill="#10052c"/>
                          <path id="パス_12643" data-name="パス 12643" d="M1623.818,895.6c-.319-.05-.979.439-.979.439-.607.254-1.471.556-1.471.556-1.22.4-1.375-.352-1.375-.352a.483.483,0,0,1,.046-.256c.452.646,4.145-1.464,3.545-1.464a3.309,3.309,0,0,1-1.224-.386l.115-.094.283-.772,1.933-.185a5.466,5.466,0,0,1,.115,2.281l-.992.363Z" transform="translate(-1619.991 -875.054)" fill="#0d051b"/>
                          <path id="パス_12644" data-name="パス 12644" d="M1634.17,684.665s-.794,4.364-.905,4.79-.23,2.149-.23,2.149.522,1.807.58,2.25.673,4.974.673,4.974-.285.928-2.562-.052c0,0-.778-4.718-1.19-6.579-.446-2.013-.329-7.383-.379-8.668a24.9,24.9,0,0,1,.1-3.126Z" transform="translate(-1629.281 -680.402)" fill="#9c5334"/>
                          <path id="パス_12645" data-name="パス 12645" d="M1645.657,716.978c.481-.115,1.271,1.266,1.91,2.6-.242,1.312-.572,3.085-.642,3.349-.112.426-.229,2.15-.229,2.15s.521,1.807.58,2.25.672,4.974.672,4.974-.175.568-1.343.344c-.477-2.083-1.522-6.721-1.479-7.226C1645.18,724.761,1644.746,717.2,1645.657,716.978Z" transform="translate(-1642.942 -713.871)" fill="#813e26"/>
                        </g>
                        <g id="グループ_3866" data-name="グループ 3866" transform="translate(1.254 0.233)">
                          <path id="パス_12646" data-name="パス 12646" d="M1642.76,703.593s-.578.922-2.557.284a65.552,65.552,0,0,0-1.434-8.326s-.531-1.833-.627-2.544-1.574-6.691-1.9-6.982a6.358,6.358,0,0,1-1.459-2.612c.047-.59,6.416,0,6.416,0a10.212,10.212,0,0,0-.053,2.347c.077,2.289.126,5.181.3,6.57,0,0,.293.953.719,2.613C1642.32,695.555,1642.76,703.593,1642.76,703.593Z" transform="translate(-1634.779 -683.15)" fill="#9c5334"/>
                        </g>
                        <path id="パス_12647" data-name="パス 12647" d="M1641.143,685.761c.077,2.289.126,5.181.3,6.57,0,0,.293.953.719,2.613.158.613.6,8.651.6,8.651a1.145,1.145,0,0,1-.58.4c-.394-2.019-1.686-8.626-1.919-9.637-.275-1.194-.417-7.528-.417-7.528a17.931,17.931,0,0,1-3.872-1.107,5.749,5.749,0,0,1-1.191-2.305c.024-.3,1.649-.294,3.258-.219l3.125.427A16.577,16.577,0,0,0,1641.143,685.761Z" transform="translate(-1633.525 -682.919)" fill="#813e26" opacity="0.3"/>
                      </g>
                    </g>
                  </g>
                </g>
              </g>
              <g id="グループ_3885" data-name="グループ 3885">
                <path id="パス_12648" data-name="パス 12648" d="M1594.382,595.121l-1.969,3.635s-1.173,1.818-.4,1.964c0,0,.67,1.178,3.855-4.456Z" transform="translate(-1588.353 -587.044)" fill="#fc9e6d"/>
                <g id="グループ_3873" data-name="グループ 3873" transform="translate(5.001 5.271)">
                  <g id="グループ_3872" data-name="グループ 3872">
                    <path id="パス_12649" data-name="パス 12649" d="M1610.682,566.369l1.22-3.185a1.755,1.755,0,0,1,1.625-1.155c1.061.063,1.2,1.5.729,2.376a12.9,12.9,0,0,1-1.657,3.065A3.49,3.49,0,0,1,1610.682,566.369Z" transform="translate(-1610.682 -562.027)" fill="#4d0012"/>
                  </g>
                </g>
                <g id="グループ_3881" data-name="グループ 3881" transform="translate(6.828)">
                  <g id="グループ_3880" data-name="グループ 3880">
                    <g id="グループ_3879" data-name="グループ 3879">
                      <g id="グループ_3878" data-name="グループ 3878">
                        <g id="グループ_3877" data-name="グループ 3877">
                          <g id="グループ_3876" data-name="グループ 3876">
                            <path id="パス_12650" data-name="パス 12650" d="M1639.624,563.852a16.051,16.051,0,0,0-3.16-1.975,12.779,12.779,0,0,0-2.932-.1c-.587-.013-1.725,2.754-1.143,5.987,0,0,.155,4.432.155,5.8a5.058,5.058,0,0,0,3.587,1.268,6.84,6.84,0,0,0,3.442-1.226,12.107,12.107,0,0,1-.217-2.629s-.025-1.214-.057-3.118C1639.286,567.049,1640.54,564.283,1639.624,563.852Z" transform="translate(-1632.229 -556.503)" fill="#f8234b"/>
                            <path id="パス_12651" data-name="パス 12651" d="M1659.283,562.677c-.4-.24-.884-.509-1.451-.8a4.206,4.206,0,0,0-1.5-.121.245.245,0,0,0,.033.149s-1.231,1.517-.616,2.132A2.367,2.367,0,0,0,1659.283,562.677Z" transform="translate(-1653.596 -556.502)" fill="#4d0012"/>
                            <g id="グループ_3875" data-name="グループ 3875" transform="translate(1.146)">
                              <g id="グループ_3874" data-name="グループ 3874">
                                <path id="パス_12652" data-name="パス 12652" d="M1661.74,536.066a11.231,11.231,0,0,1-.111,1.517s-.2.418.474.625a2.358,2.358,0,0,0,2.346-1.215,6.538,6.538,0,0,1-.055-3.119l-.307-.143Z" transform="translate(-1660.257 -530.859)" fill="#f98754"/>
                                <path id="パス_12653" data-name="パス 12653" d="M1665.349,536.221a7.03,7.03,0,0,1,.1-2.347l-.307-.143-2.347,2.335s0,.406-.039.9A3.346,3.346,0,0,0,1665.349,536.221Z" transform="translate(-1661.313 -530.859)" fill="#d25d31"/>
                                <path id="パス_12654" data-name="パス 12654" d="M1645.741,501l.02,1.4a15.427,15.427,0,0,0,.382,1.924,4.7,4.7,0,0,0,.585,1.322,1.172,1.172,0,0,0,.864-.017,3.446,3.446,0,0,0,1.647-1.339,4.449,4.449,0,0,0,.333-1.208s.148.24.285-.111a2.128,2.128,0,0,0,.037-1.163c-.081-.181-.321-.063-.38-.055s-.137.1-.159.3.012-1.312-.452-1.754A2.105,2.105,0,0,0,1645.741,501Z" transform="translate(-1645.741 -499.856)" fill="#fc9e6d"/>
                              </g>
                            </g>
                          </g>
                        </g>
                      </g>
                    </g>
                  </g>
                </g>
                <path id="パス_12655" data-name="パス 12655" d="M1703.2,626.766l-.268,4.159s-.112,2.122.643,1.91c0,0,1.126-.134,1.462-5.707Z" transform="translate(-1690.1 -616.006)" fill="#fc9e6d"/>
                <path id="パス_12656" data-name="パス 12656" d="M1647.792,682.2s-1.1-.152-5.344,1.11c0,0-.7.257-.045.567,0,0,5.143.239,5.524-.313C1648.439,682.824,1648.216,682.43,1647.792,682.2Z" transform="translate(-1634.458 -666.735)" fill="#fc9e6d"/>
                <g id="グループ_3883" data-name="グループ 3883" transform="translate(12.526 7.357)">
                  <g id="グループ_3882" data-name="グループ 3882">
                    <path id="パス_12657" data-name="パス 12657" d="M1699.771,591.865l-.326-3.394a1.756,1.756,0,0,1,.938-1.759c.977-.417,1.747.806,1.713,1.8a12.947,12.947,0,0,1-.116,3.482A3.491,3.491,0,0,1,1699.771,591.865Z" transform="translate(-1699.439 -586.628)" fill="#4d0012"/>
                  </g>
                </g>
                <path id="パス_12658" data-name="パス 12658" d="M1580.082,643.7l-2.185,1.177,1.092.53a12.9,12.9,0,0,0,2.4-1Z" transform="translate(-1575.675 -631.507)" fill="#fc9e6d"/>
                <g id="グループ_3884" data-name="グループ 3884" transform="translate(0 9.411)">
                  <path id="パス_12659" data-name="パス 12659" d="M1560.2,613.408l.1,1.416h-5.079l-1.587-2.166.505-.459,1.343,1.558Z" transform="translate(-1553.471 -612.086)" fill="#fff5f8"/>
                  <path id="パス_12660" data-name="パス 12660" d="M1558.934,612.69l-.249-.186-5.239.344-1.477-1.989h-.275l1.578,2.552s3.136-.066,3.267-.115S1558.934,612.69,1558.934,612.69Z" transform="translate(-1551.694 -610.86)" fill="#687eb9"/>
                  <path id="パス_12661" data-name="パス 12661" d="M1583.485,639.452l-5.028.407-.693-7,5.029-.406Z" transform="translate(-1575.554 -630.619)" fill="#2f3c98"/>
                  <path id="パス_12662" data-name="パス 12662" d="M1553.158,612.932l-1.464-2.073.6,7.072,1.585,1.915Z" transform="translate(-1551.694 -610.86)" fill="#2f3c98"/>
                  <path id="パス_12663" data-name="パス 12663" d="M1569.7,635.469a1.2,1.2,0,0,1-.747-.164l.719,6.915s.087.3.72.253Z" transform="translate(-1567.493 -633.233)" fill="#687eb9"/>
                </g>
                <path id="パス_12664" data-name="パス 12664" d="M1625.965,691.086s-.565-.251-.6-.287-.231-.019-.374.021a1.814,1.814,0,0,0-.531.219c-.028.057.019.067.157.047a2.267,2.267,0,0,1,.374,0s-1.105.178-1.178.648c-.026.177.566.5,1.125.5a2.861,2.861,0,0,0,1.092-.514Z" transform="translate(-1617.702 -674.592)" fill="#fc9e6d"/>
                <path id="パス_12665" data-name="パス 12665" d="M1553.778,667.2a.517.517,0,0,0-.141.326,1.736,1.736,0,0,0,.229.716c.1.081.8.525.9.08.093-.418-.171-.477-.485-.716,0,0-.242-.134-.179-.207s.463-.1.425-.2S1553.929,667.133,1553.778,667.2Z" transform="translate(-1553.472 -652.953)" fill="#fc9e6d"/>
              </g>
            </g>
            <path id="パス_12666" data-name="パス 12666" d="M1644.537,490.274a6.288,6.288,0,0,1-.265,1.035c-.092.112-.122-.873-.244-1.035,0,0-1.7.447-2.223-.924a1.333,1.333,0,0,0-1.021,1.57,1.884,1.884,0,0,1-.481-1.357c0-.822,1.379-2.192,1.806-1.918,0,0,1.775-.87,2.792.213.971,1.035,1.474,2.574-.152,5.239a7.524,7.524,0,0,1-.02-1.523,1.658,1.658,0,0,0,.252-.883A.54.54,0,0,0,1644.537,490.274Z" transform="translate(-1632.791 -487.315)" fill="#773819"/>
          </g>
          <g id="グループ_3919" data-name="グループ 3919" transform="translate(12.471 47.381)">
            <g id="グループ_3909" data-name="グループ 3909" transform="translate(0 1.115)">
              <g id="グループ_3908" data-name="グループ 3908" transform="translate(0 1.063)">
                <g id="グループ_3894" data-name="グループ 3894" transform="translate(0 16.698)">
                  <path id="パス_12667" data-name="パス 12667" d="M149.3,1002.964s.266,2.754.318,3.126a2.582,2.582,0,0,1-.744,1.329s-1.6-.532-1.759-1.7a11.427,11.427,0,0,1,.43-3.307Z" transform="translate(-147.088 -983.679)" fill="#0d051b"/>
                  <g id="グループ_3893" data-name="グループ 3893" transform="translate(0.026)">
                    <g id="グループ_3892" data-name="グループ 3892">
                      <g id="グループ_3891" data-name="グループ 3891">
                        <g id="グループ_3890" data-name="グループ 3890">
                          <g id="グループ_3888" data-name="グループ 3888" transform="translate(4.229 0.343)">
                            <path id="パス_12668" data-name="パス 12668" d="M210.45,1002.964l.581-.167-.5-.387-.154.348Z" transform="translate(-209.267 -984.023)" fill="#0c070c"/>
                            <path id="パス_12669" data-name="パス 12669" d="M199.735,980.284l0,.129-.992-.363a5.458,5.458,0,0,1,.114-2.28l1.932.184.283.773s1.191.979,2,1.485c0,0,.534.306.485.716,0,0-.155.75-1.374.351,0,0-.864-.3-1.47-.556C200.714,980.723,200.054,980.235,199.735,980.284Z" transform="translate(-198.555 -961.472)" fill="#10052c"/>
                            <path id="パス_12670" data-name="パス 12670" d="M199.735,980.284c.319-.049.979.439.979.439.606.254,1.47.556,1.47.556,1.219.4,1.374-.351,1.374-.351a.485.485,0,0,0-.045-.256c-.452.646-4.146-1.464-3.545-1.464a3.306,3.306,0,0,0,1.223-.386l-.115-.094-.283-.773-1.932-.184a5.458,5.458,0,0,0-.114,2.28l.992.363Z" transform="translate(-198.555 -961.472)" fill="#0d051b"/>
                            <path id="パス_12671" data-name="パス 12671" d="M200.393,785.643c-.247,0-.492-.015-.738-.036l-2.261,2.461s.793,4.364.9,4.79.23,2.149.23,2.149-.523,1.807-.581,2.25-.672,4.974-.672,4.974.285.928,2.562-.053c0,0,.779-4.717,1.191-6.579.446-2.013.328-7.384.378-8.669.019-.485.018-.962.007-1.391A5.182,5.182,0,0,1,200.393,785.643Z" transform="translate(-197.276 -785.539)" fill="#263951"/>
                            <path id="パス_12672" data-name="パス 12672" d="M199.568,801.659c-.481-.115-1.27,1.266-1.909,2.6.241,1.312.572,3.085.64,3.349.112.427.23,2.15.23,2.15s-.523,1.807-.581,2.25-.672,4.975-.672,4.975.175.568,1.343.345c.478-2.083,1.522-6.721,1.48-7.227C200.044,809.442,200.479,801.876,199.568,801.659Z" transform="translate(-197.276 -800.286)" fill="#203346"/>
                          </g>
                          <g id="グループ_3889" data-name="グループ 3889">
                            <path id="パス_12673" data-name="パス 12673" d="M154.743,781.936c-.681,0-1.352-.124-2.031-.135a30.748,30.748,0,0,1-3.682-.312c.008.345.006.815-.015,1.451-.078,2.289-.126,5.181-.3,6.57,0,0-.294.952-.719,2.612-.158.613-.6,8.651-.6,8.651s.578.921,2.557.283a65.649,65.649,0,0,1,1.434-8.325s.532-1.834.627-2.544,1.574-6.691,1.9-6.982a7.146,7.146,0,0,0,.918-1.271Z" transform="translate(-147.397 -781.488)" fill="#263951"/>
                          </g>
                          <path id="パス_12674" data-name="パス 12674" d="M154.743,781.936c-.681,0-1.352-.124-2.031-.135a30.737,30.737,0,0,1-3.681-.312c.007.345.006.815-.016,1.451-.078,2.289-.126,5.181-.3,6.57,0,0-.294.952-.719,2.612-.158.613-.6,8.651-.6,8.651a1.15,1.15,0,0,0,.581.4c.394-2.02,1.685-8.626,1.918-9.636.276-1.195.416-7.528.416-7.528a17.949,17.949,0,0,0,3.874-1.107,10.123,10.123,0,0,0,.649-.964Z" transform="translate(-147.397 -781.488)" fill="#203346"/>
                          <path id="パス_12675" data-name="パス 12675" d="M182.088,800.774s.154,1.08-1.191,1.117A2.107,2.107,0,0,1,182.088,800.774Z" transform="translate(-178.057 -799.139)" fill="#0c1721"/>
                        </g>
                      </g>
                    </g>
                  </g>
                </g>
                <g id="グループ_3907" data-name="グループ 3907" transform="translate(0.504)">
                  <path id="パス_12676" data-name="パス 12676" d="M245.8,679.8l1.772,3.584s.835,1.659.6,2.015c0,0-.669,1.178-3.854-4.456Z" transform="translate(-236.576 -671.725)" fill="#fc9e6d"/>
                  <g id="グループ_3896" data-name="グループ 3896" transform="translate(6.418 5.271)">
                    <g id="グループ_3895" data-name="グループ 3895">
                      <path id="パス_12677" data-name="パス 12677" d="M232.564,651.048l-1.221-3.184a1.756,1.756,0,0,0-1.625-1.155c-1.06.063-1.2,1.5-.729,2.376a12.945,12.945,0,0,0,1.658,3.065A3.491,3.491,0,0,0,232.564,651.048Z" transform="translate(-228.731 -646.706)" fill="#3f619d"/>
                    </g>
                  </g>
                  <g id="グループ_3904" data-name="グループ 3904" transform="translate(0.693)">
                    <g id="グループ_3903" data-name="グループ 3903">
                      <g id="グループ_3902" data-name="グループ 3902">
                        <g id="グループ_3901" data-name="グループ 3901">
                          <g id="グループ_3900" data-name="グループ 3900">
                            <g id="グループ_3899" data-name="グループ 3899">
                              <path id="パス_12678" data-name="パス 12678" d="M161.548,648.531a16.058,16.058,0,0,1,3.158-1.975,12.761,12.761,0,0,1,2.931-.1c.588-.013,1.726,2.753,1.144,5.986,0,0-.154,4.432-.154,5.8a5.062,5.062,0,0,1-3.588,1.268,6.842,6.842,0,0,1-3.443-1.226,11.989,11.989,0,0,0,.218-2.629s.025-1.214.057-3.117C161.885,651.727,160.632,648.961,161.548,648.531Z" transform="translate(-161.213 -641.182)" fill="#5e81bb"/>
                              <path id="パス_12679" data-name="パス 12679" d="M185.311,647.357c.4-.24.884-.509,1.451-.8a4.219,4.219,0,0,1,1.5-.122.246.246,0,0,1-.033.15s1.23,1.517.615,2.132A2.367,2.367,0,0,1,185.311,647.357Z" transform="translate(-183.268 -641.182)" fill="#37568f"/>
                              <g id="グループ_3898" data-name="グループ 3898" transform="translate(2.368)">
                                <g id="グループ_3897" data-name="グループ 3897">
                                  <path id="パス_12680" data-name="パス 12680" d="M192.156,620.742a11.214,11.214,0,0,0,.111,1.517s.2.418-.474.625a2.358,2.358,0,0,1-2.345-1.215,6.548,6.548,0,0,0,.054-3.119l.308-.144Z" transform="translate(-189.422 -615.535)" fill="#f98754"/>
                                  <path id="パス_12681" data-name="パス 12681" d="M190.189,620.9a6.987,6.987,0,0,0-.1-2.347l.308-.144,2.346,2.336s0,.406.04.9A3.348,3.348,0,0,1,190.189,620.9Z" transform="translate(-190.009 -615.535)" fill="#d25d31"/>
                                  <path id="パス_12682" data-name="パス 12682" d="M193.358,585.679l-.019,1.4a15.666,15.666,0,0,1-.384,1.924,4.72,4.72,0,0,1-.583,1.322,1.177,1.177,0,0,1-.865-.016,3.453,3.453,0,0,1-1.647-1.339,4.4,4.4,0,0,1-.332-1.208s-.149.24-.286-.111a2.123,2.123,0,0,1-.037-1.163c.081-.182.321-.063.38-.055s.137.1.159.3-.013-1.312.451-1.755A2.107,2.107,0,0,1,193.358,585.679Z" transform="translate(-189.141 -584.537)" fill="#fc9e6d"/>
                                </g>
                              </g>
                            </g>
                          </g>
                        </g>
                      </g>
                    </g>
                  </g>
                  <path id="パス_12683" data-name="パス 12683" d="M158.644,711.445l.029,4.452s.351,1.83-.4,1.618c0,0-1.127-.134-1.463-5.707Z" transform="translate(-156.487 -700.685)" fill="#fc9e6d"/>
                  <path id="パス_12684" data-name="パス 12684" d="M165.5,763.006a.676.676,0,0,0,.746-.5c.051-.067-1.225-3.5-1.225-3.5-.394-.688-1.238-.968-1.255-.068A29.047,29.047,0,0,0,165.5,763.006Z" transform="translate(-162.854 -743.638)" fill="#fc9e6d"/>
                  <g id="グループ_3906" data-name="グループ 3906" transform="translate(0 7.357)">
                    <g id="グループ_3905" data-name="グループ 3905">
                      <path id="パス_12685" data-name="パス 12685" d="M155.43,676.546l.327-3.395a1.755,1.755,0,0,0-.939-1.759c-.977-.417-1.747.806-1.713,1.8a12.917,12.917,0,0,0,.117,3.482A3.49,3.49,0,0,0,155.43,676.546Z" transform="translate(-153.037 -671.308)" fill="#769fca"/>
                    </g>
                  </g>
                  <path id="パス_12686" data-name="パス 12686" d="M278.3,731.672l3.181,2.277-.4.365s-3.425-1.338-3.56-1.814Z" transform="translate(-266.971 -719.198)" fill="#fc9e6d"/>
                </g>
              </g>
              <path id="パス_12687" data-name="パス 12687" d="M180.712,574.953a6.225,6.225,0,0,0,.266,1.036c.092.111.121-.873.244-1.036,0,0,1.705.447,2.223-.923a1.333,1.333,0,0,1,1.022,1.57,1.885,1.885,0,0,0,.48-1.356c0-.822-1.378-2.192-1.806-1.918,0,0-1.775-.87-2.792.213-.971,1.035-1.474,2.573.152,5.238a7.538,7.538,0,0,0,.02-1.523,1.661,1.661,0,0,1-.253-.884A.54.54,0,0,1,180.712,574.953Z" transform="translate(-176.703 -571.995)" fill="#261419"/>
            </g>
            <g id="グループ_3917" data-name="グループ 3917" transform="translate(2.887)">
              <g id="グループ_3914" data-name="グループ 3914" transform="translate(0 3.77)">
                <g id="グループ_3911" data-name="グループ 3911" transform="translate(0.055)">
                  <path id="パス_12688" data-name="パス 12688" d="M187.207,604.932a1.951,1.951,0,0,0-.955-1.482c-.524-.293-.948-.108-.948.413a1.9,1.9,0,0,0,.732,1.329c-.061-.008-.1-.013-.1-.012s.747.417.747.417l.276-.16a.448.448,0,0,0,.039-.023h0A.536.536,0,0,0,187.207,604.932Z" transform="translate(-185.005 -603.31)" fill="#081c4c"/>
                  <path id="パス_12689" data-name="パス 12689" d="M184.467,604.156l-.316.184s.11.019.12.019S184.467,604.156,184.467,604.156Z" transform="translate(-183.951 -604.084)" fill="#081c4c"/>
                  <g id="グループ_3910" data-name="グループ 3910" transform="translate(0 0.172)">
                    <path id="パス_12690" data-name="パス 12690" d="M183.7,606.955c0,.526-.42.71-.948.412a1.939,1.939,0,0,1-.956-1.482c0-.521.424-.705.947-.412A1.949,1.949,0,0,1,183.7,606.955Z" transform="translate(-181.792 -605.333)" fill="#213f83"/>
                  </g>
                </g>
                <g id="グループ_3913" data-name="グループ 3913" transform="translate(0 0.498)">
                  <path id="パス_12691" data-name="パス 12691" d="M183.583,609.284a.512.512,0,0,0-.523-.048h0l-.226.131s.078.013.086.013a.315.315,0,0,0,.039-.038.471.471,0,0,0-.055.237,1.364,1.364,0,0,0,.524.952l-.074-.009c-.011,0,.534.3.534.3l.2-.114.029-.016h0a.386.386,0,0,0,.153-.345A1.4,1.4,0,0,0,183.583,609.284Z" transform="translate(-182.691 -609.185)" fill="#081c4c"/>
                  <g id="グループ_3912" data-name="グループ 3912" transform="translate(0 0.122)">
                    <path id="パス_12692" data-name="パス 12692" d="M182.5,611.789c0,.376-.3.508-.678.3a1.389,1.389,0,0,1-.684-1.061c0-.373.3-.5.678-.3A1.394,1.394,0,0,1,182.5,611.789Z" transform="translate(-181.139 -610.628)" fill="#4575b4"/>
                  </g>
                </g>
              </g>
              <g id="グループ_3916" data-name="グループ 3916" transform="translate(0.929)">
                <g id="グループ_3915" data-name="グループ 3915">
                  <path id="パス_12693" data-name="パス 12693" d="M194.732,559.824l-.014.463c.154-.014.23.123.348.085l.032-.684c0-.762-.825-1.083-1.591-.654a2.852,2.852,0,0,0-1.4,2.169h0l-.012,1.6.266.165.078-.168.043-1.7s.383-1.579,1.227-1.76C193.711,559.334,194.57,558.695,194.732,559.824Z" transform="translate(-192.096 -558.841)" fill="#546476"/>
                </g>
              </g>
              <path id="パス_12694" data-name="パス 12694" d="M197.869,561.644l0,.409c.053-.019.107-.035.161-.05l0-.547c0-.762-.621-1.033-1.387-.6a2.853,2.853,0,0,0-1.4,2.168h0l-.012,1.6.163-.1.012-1.492h0a2.521,2.521,0,0,1,1.236-1.916C197.32,560.732,197.869,560.971,197.869,561.644Z" transform="translate(-194.038 -560.496)" fill="#bdd6db"/>
            </g>
            <path id="パス_12695" data-name="パス 12695" d="M308.85,747.254l-.65,2.823-1.248.152.614-2.81Z" transform="translate(-293.398 -731.28)" fill="#04091c"/>
            <path id="パス_12696" data-name="パス 12696" d="M318.476,753.311a.517.517,0,0,1,.14.326,1.749,1.749,0,0,1-.229.716c-.1.081-.8.525-.9.08-.094-.418.17-.477.485-.716,0,0,.241-.134.178-.207s-.462-.1-.425-.2S318.325,753.249,318.476,753.311Z" transform="translate(-303.026 -736.769)" fill="#fc9e6d"/>
            <path id="パス_12697" data-name="パス 12697" d="M307.427,745.849l-.182-.13-1.32.172-.527,2.619.132.315.613-2.811Z" transform="translate(-291.975 -729.875)" fill="#1f2d7b"/>
            <path id="パス_12698" data-name="パス 12698" d="M209.006,640.187s-5.452,1.421-5.953-4c0,0-.207-2.992-1.846-4.084a5.757,5.757,0,0,1-1.473-3.623" transform="translate(-195.27 -622.577)" fill="none" stroke="#04091c" stroke-miterlimit="10" stroke-width="0.122"/>
            <g id="グループ_3918" data-name="グループ 3918" transform="translate(6.619 6.387)">
              <path id="パス_12699" data-name="パス 12699" d="M225.991,634.172l-.041.17a1.282,1.282,0,0,1-.067.2,15.89,15.89,0,0,1-.727,3.482l.115.039A15.314,15.314,0,0,0,225.991,634.172Z" transform="translate(-225.155 -634.172)" fill="#04091c"/>
            </g>
          </g>
          <g id="グループ_3942" data-name="グループ 3942" transform="translate(70.177)">
            <path id="パス_12700" data-name="パス 12700" d="M947.728,102.41s3.725,2.973,3.4,3.594-.652.584-1.062.319-3.507-2.631-3.507-2.631Z" transform="translate(-936.481 -93.727)" fill="#d25d31"/>
            <path id="パス_12701" data-name="パス 12701" d="M876.019,4.208s.091,1.334.078,1.546c0,0-.287-.737-.432-1.1a5.986,5.986,0,0,1-.352-2.928s.246-.909.785-.963c0,0,.242-.636.7-.727s2.945-.145,3.6,1.727a9,9,0,0,1-.413,1.886C879.777,3.944,876.019,4.208,876.019,4.208Z" transform="translate(-871.196 0)" fill="#270f0b"/>
            <g id="グループ_3941" data-name="グループ 3941" transform="translate(0 1.245)">
              <g id="グループ_3940" data-name="グループ 3940">
                <g id="グループ_3926" data-name="グループ 3926" transform="translate(0.937 16.264)">
                  <path id="パス_12702" data-name="パス 12702" d="M840.979,429.885s.266,2.753.319,3.126a2.577,2.577,0,0,1-.744,1.329s-1.6-.532-1.76-1.7a11.414,11.414,0,0,1,.43-3.307Z" transform="translate(-838.768 -410.441)" fill="#0d051b"/>
                  <g id="グループ_3925" data-name="グループ 3925" transform="translate(0.026)">
                    <g id="グループ_3924" data-name="グループ 3924">
                      <g id="グループ_3923" data-name="グループ 3923">
                        <g id="グループ_3922" data-name="グループ 3922">
                          <g id="グループ_3920" data-name="グループ 3920" transform="translate(4.229)">
                            <path id="パス_12703" data-name="パス 12703" d="M902.137,429.885l.581-.167-.5-.386-.154.347Z" transform="translate(-900.953 -410.441)" fill="#0c070c"/>
                            <path id="パス_12704" data-name="パス 12704" d="M891.419,407.2l0,.129-.991-.363a5.461,5.461,0,0,1,.114-2.28l1.932.184.283.772s1.191.979,2,1.485c0,0,.534.307.485.716,0,0-.155.75-1.374.351,0,0-.865-.3-1.471-.556C892.4,407.637,891.738,407.148,891.419,407.2Z" transform="translate(-890.239 -387.882)" fill="#10052c"/>
                            <path id="パス_12705" data-name="パス 12705" d="M891.419,407.2c.319-.05.979.439.979.439.606.254,1.471.556,1.471.556,1.219.4,1.374-.351,1.374-.351a.482.482,0,0,0-.045-.256c-.452.646-4.145-1.464-3.545-1.464a3.293,3.293,0,0,0,1.224-.387l-.115-.094-.283-.772-1.932-.184a5.461,5.461,0,0,0-.114,2.28l.991.363Z" transform="translate(-890.239 -387.882)" fill="#0d051b"/>
                            <path id="パス_12706" data-name="パス 12706" d="M891.424,206.987l-2.35,2.557s.794,4.363.905,4.79.23,2.15.23,2.15-.522,1.807-.581,2.25-.672,4.974-.672,4.974.285.928,2.562-.053c0,0,.779-4.717,1.191-6.579.445-2.013.328-7.384.378-8.668.027-.686.013-1.354-.01-1.9A8.363,8.363,0,0,1,891.424,206.987Z" transform="translate(-888.956 -206.512)" fill="#5e81bb"/>
                            <path id="パス_12707" data-name="パス 12707" d="M891.249,228.573c-.481-.115-1.271,1.266-1.91,2.6.242,1.312.572,3.085.641,3.349.112.427.23,2.15.23,2.15s-.522,1.807-.581,2.25-.672,4.974-.672,4.974.175.569,1.344.345c.477-2.083,1.522-6.721,1.479-7.226C891.725,236.356,892.159,228.791,891.249,228.573Z" transform="translate(-888.956 -226.696)" fill="#3f5e94"/>
                          </g>
                          <g id="グループ_3921" data-name="グループ 3921" transform="translate(0 0.157)">
                            <path id="パス_12708" data-name="パス 12708" d="M840.711,208.36c.008.345.005.816-.015,1.455-.078,2.289-.126,5.181-.3,6.57,0,0-.293.952-.719,2.612-.158.614-.6,8.651-.6,8.651s.579.922,2.557.283a65.768,65.768,0,0,1,1.433-8.326s.533-1.833.627-2.544,1.574-6.692,1.9-6.982a8.048,8.048,0,0,0,1.118-1.627A11.074,11.074,0,0,1,840.711,208.36Z" transform="translate(-839.077 -208.36)" fill="#5e81bb"/>
                          </g>
                          <path id="パス_12709" data-name="パス 12709" d="M840.711,208.36c.008.345.005.816-.015,1.455-.078,2.289-.126,5.181-.3,6.57,0,0-.293.952-.719,2.612-.158.614-.6,8.651-.6,8.651a1.149,1.149,0,0,0,.581.4c.394-2.019,1.685-8.627,1.919-9.637.275-1.195.415-7.528.415-7.528a17.973,17.973,0,0,0,3.874-1.107,10.031,10.031,0,0,0,.85-1.32A11.071,11.071,0,0,1,840.711,208.36Z" transform="translate(-839.077 -208.203)" fill="#3f5e94" opacity="0.4"/>
                        </g>
                      </g>
                    </g>
                  </g>
                </g>
                <g id="グループ_3939" data-name="グループ 3939">
                  <g id="グループ_3928" data-name="グループ 3928" transform="translate(7.394 4.973)">
                    <g id="グループ_3927" data-name="グループ 3927" transform="translate(0 0)">
                      <path id="パス_12710" data-name="パス 12710" d="M919.767,76.416l-2.346-2.475a1.755,1.755,0,0,0-1.943-.445c-.955.464-.538,1.847.235,2.474a12.941,12.941,0,0,0,2.705,2.2A3.492,3.492,0,0,0,919.767,76.416Z" transform="translate(-914.925 -73.345)" fill="#070835"/>
                    </g>
                  </g>
                  <g id="グループ_3936" data-name="グループ 3936" transform="translate(2.084)">
                    <g id="グループ_3935" data-name="グループ 3935">
                      <g id="グループ_3934" data-name="グループ 3934">
                        <g id="グループ_3933" data-name="グループ 3933">
                          <g id="グループ_3932" data-name="グループ 3932">
                            <g id="グループ_3931" data-name="グループ 3931">
                              <path id="パス_12711" data-name="パス 12711" d="M852.638,75.448a16.08,16.08,0,0,1,3.159-1.975,12.756,12.756,0,0,1,2.932-.1c.588-.013,1.726,2.753,1.144,5.986,0,0-.154,4.432-.154,5.8a5.06,5.06,0,0,1-3.588,1.268,6.841,6.841,0,0,1-3.443-1.226,11.951,11.951,0,0,0,.219-2.629s.024-1.213.056-3.117C852.975,78.645,851.722,75.879,852.638,75.448Z" transform="translate(-852.302 -68.374)" fill="#0d0b5a"/>
                              <path id="パス_12712" data-name="パス 12712" d="M876.4,74.271c.4-.24.884-.509,1.451-.8a4.2,4.2,0,0,1,1.5-.122.25.25,0,0,1-.032.15s1.23,1.517.615,2.133A2.368,2.368,0,0,1,876.4,74.271Z" transform="translate(-874.358 -68.37)" fill="#5e81bb"/>
                              <g id="グループ_3930" data-name="グループ 3930" transform="translate(2.383)">
                                <g id="グループ_3929" data-name="グループ 3929">
                                  <path id="パス_12713" data-name="パス 12713" d="M883.247,47.66a11.134,11.134,0,0,0,.111,1.517s.2.418-.474.625a2.358,2.358,0,0,1-2.346-1.215,6.553,6.553,0,0,0,.055-3.118l.308-.144Z" transform="translate(-880.527 -42.726)" fill="#f98754"/>
                                  <path id="パス_12714" data-name="パス 12714" d="M881.283,47.815a6.992,6.992,0,0,0-.1-2.347l.308-.144,2.346,2.336s.047.858.087,1.353C883.368,49.485,882.213,48.609,881.283,47.815Z" transform="translate(-881.117 -42.726)" fill="#d25d31"/>
                                  <path id="パス_12715" data-name="パス 12715" d="M884.9,16.163l-.245,1.379a15.619,15.619,0,0,1-.689,1.837,4.7,4.7,0,0,1-.79,1.21,1.171,1.171,0,0,1-.85-.156,3.446,3.446,0,0,1-1.409-1.587,4.413,4.413,0,0,1-.132-1.246s-.258.187-.337-.181a1.983,1.983,0,0,1,.1-1.034c.19-.393.365-.29.421-.273a.766.766,0,0,1,.2.505c-.012.2.2-1.3.729-1.659C882.66,14.433,884.727,14.586,884.9,16.163Z" transform="translate(-880.414 -14.687)" fill="#fc9e6d"/>
                                </g>
                              </g>
                            </g>
                          </g>
                        </g>
                      </g>
                    </g>
                  </g>
                  <path id="パス_12716" data-name="パス 12716" d="M830.45,149.842l-1.092,4.022s-.591,1.993-1.456,1.519c0,0-.726-1.036.693-5.792Z" transform="translate(-827.717 -138.153)" fill="#fc9e6d"/>
                  <path id="パス_12717" data-name="パス 12717" d="M829.212,195.921s.4,1.038.141,5.456c0,0-.091.736-.543.174,0,0-1.407-4.953-.957-5.45C828.458,195.434,828.893,195.562,829.212,195.921Z" transform="translate(-827.761 -180.285)" fill="#fc9e6d"/>
                  <g id="グループ_3938" data-name="グループ 3938" transform="translate(0.487 7.055)">
                    <g id="グループ_3937" data-name="グループ 3937" transform="translate(0 0)">
                      <path id="パス_12718" data-name="パス 12718" d="M835.811,103.272l.974-3.268A1.754,1.754,0,0,0,836.2,98.1c-.878-.6-1.824.247-1.982,1.231a30.639,30.639,0,0,0-.758,3.528A1.963,1.963,0,0,0,835.811,103.272Z" transform="translate(-833.464 -97.898)" fill="#0d0b5a"/>
                    </g>
                  </g>
                </g>
              </g>
            </g>
            <path id="パス_12719" data-name="パス 12719" d="M892.939,11.541a2.856,2.856,0,0,1-1.969-.686s-.522-.4-.861,0-.566,1.356-.907,1.142c0,0,.023-1.74.314-1.931a7.4,7.4,0,0,1,1.473-.428l1.328.428.545.5A1.257,1.257,0,0,1,892.939,11.541Z" transform="translate(-883.989 -8.82)" fill="#270f0b"/>
            <path id="パス_12720" data-name="パス 12720" d="M835.438,249.644s.332.715.479.95a3.609,3.609,0,0,1,.277.841,1.775,1.775,0,0,1,.05.324s-.086.05-.244-.147-.245-.5-.347-.572a2.85,2.85,0,0,0-.048.633c.03.2.157,1.226.026,1.247-.252.04-.27-.676-.3-.874,0,0,.1,1.254-.081,1.264a.269.269,0,0,1-.176-.194s-.122.405-.263-.033l-.052-.342s-.152.208-.232-.074a13.246,13.246,0,0,1-.023-3.408Z" transform="translate(-833.82 -228.125)" fill="#fc9e6d"/>
            <path id="パス_12721" data-name="パス 12721" d="M961.6,62.042a.777.777,0,0,0,1.082,0c.626-.487-.283-3.713-2.938-8.015l-.582.254S959.826,60.093,961.6,62.042Z" transform="translate(-948.022 -49.446)" fill="#fc9e6d"/>
            <path id="パス_12722" data-name="パス 12722" d="M943.433,25.662a5.187,5.187,0,0,0-.364-1.373,3.877,3.877,0,0,0-1.287-1.2c-.422-.159-.608-.039-.26.864l.26.649s.421,1.36,1.127,1.753C942.909,26.361,943.529,26.2,943.433,25.662Z" transform="translate(-931.707 -21.082)" fill="#fc9e6d"/>
          </g>
          <g id="グループ_3955" data-name="グループ 3955" transform="translate(105.104 78.117)">
            <g id="グループ_3954" data-name="グループ 3954">
              <g id="グループ_3953" data-name="グループ 3953" transform="translate(0 0.156)">
                <path id="パス_12723" data-name="パス 12723" d="M1241.145,1044.852a18.231,18.231,0,0,0-1.467,3.772s.079.655.445.838,3.7,2.646,3.7,2.646l.287-.917s-2.7-2.448-3.065-2.691l1.388-2.548Z" transform="translate(-1239.678 -1034.538)" fill="#e67a48"/>
                <path id="パス_12724" data-name="パス 12724" d="M1251.933,997.551a3.049,3.049,0,0,0-2.046.733,23.946,23.946,0,0,0-2.326,4.206,2.916,2.916,0,0,0,2.044,1.022s1.537-2.155,2.065-2.853S1251.933,997.551,1251.933,997.551Z" transform="translate(-1246.893 -991.247)" fill="#2a004d"/>
                <g id="グループ_3952" data-name="グループ 3952" transform="translate(3.066)">
                  <path id="パス_12725" data-name="パス 12725" d="M1284.049,1395a1.556,1.556,0,0,0,0,1.738s.312.344.921-.025a1.2,1.2,0,0,1,1,0,1.749,1.749,0,0,0,1.924-.584s.2-.4-.312-.46a5.714,5.714,0,0,1-2.32-.81Z" transform="translate(-1283.126 -1354.871)" fill="#fa97b3"/>
                  <path id="パス_12726" data-name="パス 12726" d="M1286.014,1306.883h2.52c-.628,2.71-1.345,7.7-1.345,7.7a.841.841,0,0,1-1.119,0C1286.142,1313.379,1286.039,1308.053,1286.014,1306.883Z" transform="translate(-1285.152 -1274.354)" fill="#fc9e6d"/>
                  <path id="パス_12727" data-name="パス 12727" d="M1325.7,1409.371a1.56,1.56,0,0,0,0,1.739s.312.344.922-.025a1.193,1.193,0,0,1,1,0,1.743,1.743,0,0,0,1.923-.585s.2-.4-.311-.459a5.73,5.73,0,0,1-2.321-.809Z" transform="translate(-1321.242 -1368.024)" fill="#fa97b3"/>
                  <path id="パス_12728" data-name="パス 12728" d="M1328.341,1368.688c.019,1.566.024,3.1-.01,3.681,0,0,.35.253,1.182-.056,0,0,.224-1.684.534-3.626Z" transform="translate(-1323.881 -1330.918)" fill="#fc9e6d"/>
                  <path id="パス_12729" data-name="パス 12729" d="M1276.52,1158.246s-1.186,1.693-.413,5.136a44.63,44.63,0,0,1,.6,4.493,32.028,32.028,0,0,0-.188,6.209s-.112,3.105,0,3.76c.047.28,1.067.367,1.467,0,0,0,1.708-7.86,1.813-8.644s-.169-4.638-.222-5.215l.209.127s.759,4.3.858,5.035a45.787,45.787,0,0,0-.411,10.174,3.444,3.444,0,0,0,1.3,0s2.3-9.179,2.356-10.069a21.131,21.131,0,0,0,.287-2.568c0-1.912-.424-8.115-.424-8.115Z" transform="translate(-1275.845 -1138.318)" fill="#3d4a9f"/>
                  <g id="グループ_3951" data-name="グループ 3951" transform="translate(0.262)">
                    <g id="グループ_3950" data-name="グループ 3950">
                      <g id="グループ_3949" data-name="グループ 3949">
                        <g id="グループ_3948" data-name="グループ 3948">
                          <g id="グループ_3947" data-name="グループ 3947">
                            <g id="グループ_3946" data-name="グループ 3946">
                              <g id="グループ_3945" data-name="グループ 3945">
                                <g id="グループ_3944" data-name="グループ 3944">
                                  <path id="パス_12730" data-name="パス 12730" d="M1284.5,998.512s1.136.277,1.659.359a13.939,13.939,0,0,1,1.358,3.726,3.779,3.779,0,0,1-1.217,2.327c-.372.29.6,2.535.7,7.085a8.444,8.444,0,0,1-5.432.707,6.348,6.348,0,0,1-2.629-1.127s.508-2.153.973-4.294a8.224,8.224,0,0,0-.287-3.542c-.847-3.437-.344-5.175.2-5.921,0,0,.346-.5,1.466-.183Z" transform="translate(-1278.932 -991.242)" fill="#4e067e"/>
                                  <path id="パス_12731" data-name="パス 12731" d="M1305.094,1001.87s.445.227.45.5c.01.568-3.212.663-3.772-.663,0,0-.229-.613.932-.343Z" transform="translate(-1299.819 -994.677)" fill="#2c0039"/>
                                  <g id="グループ_3943" data-name="グループ 3943" transform="translate(1.212)">
                                    <path id="パス_12732" data-name="パス 12732" d="M1297.486,923.852a3.252,3.252,0,0,1,.565,1.416s.274,1.4.307,1.694a9.875,9.875,0,0,1-.038,1.69.525.525,0,0,1-.29.233,3.243,3.243,0,0,1-.717.128,10.028,10.028,0,0,0,.032,1.588c.088.718-2.39.394-2.779-.288,0,0,.2-1.48,0-1.67a10.871,10.871,0,0,1-1.231-2.155,2.56,2.56,0,0,1,1.133-3.017A2.876,2.876,0,0,1,1297.486,923.852Z" transform="translate(-1293.221 -923.203)" fill="#fc9e6d"/>
                                    <path id="パス_12733" data-name="パス 12733" d="M1310.456,972.943a6.591,6.591,0,0,0-.764-.876c-.192-.117-1.213.556-1.213.556l-.1.645c.037.051.059.083.059.083.2.189,0,1.67,0,1.67.39.682,2.867,1.006,2.78.288a9.947,9.947,0,0,1-.032-1.588,3.241,3.241,0,0,0,.718-.128.638.638,0,0,0,.117-.055A1.759,1.759,0,0,1,1310.456,972.943Z" transform="translate(-1307.089 -967.911)" fill="#d25d31" opacity="0.5"/>
                                  </g>
                                </g>
                              </g>
                            </g>
                          </g>
                        </g>
                      </g>
                    </g>
                  </g>
                </g>
              </g>
              <path id="パス_12734" data-name="パス 12734" d="M1295.913,922.142a.65.65,0,0,1-.02.908,4.33,4.33,0,0,0-.431,1.659c-.02.119-.163.072-.3,0s-.526-.281-.654.073a8.486,8.486,0,0,1-.551,1.444c-.165.189-.707,1.047-1.041.73a7.964,7.964,0,0,1-1.427-2.207,2.632,2.632,0,0,1,1.221-2.907S1294.013,920.577,1295.913,922.142Z" transform="translate(-1287.029 -921.359)" fill="#250a0a"/>
              <path id="パス_12735" data-name="パス 12735" d="M1328.046,958.262s-.6-.34-.823-.214c-.181.1-.188.727.63,1.059Z" transform="translate(-1319.71 -954.912)" fill="#fc9e6d"/>
              <path id="パス_12736" data-name="パス 12736" d="M1286.54,1227.552a1.2,1.2,0,0,0,.753-.244s1.709-7.859,1.813-8.644-.17-4.638-.222-5.215a2.391,2.391,0,0,1-1.25-.886c-.425-.663-1.63.1-1.62.189a23.832,23.832,0,0,0,.911,4.076c.474,1.091.5,5.118.366,6.066C1287.18,1223.706,1286.667,1226.615,1286.54,1227.552Z" transform="translate(-1282.084 -1187.627)" fill="#212f6f"/>
              <path id="パス_12737" data-name="パス 12737" d="M1326.971,1397.158a2.487,2.487,0,0,1-.239.646,1.1,1.1,0,0,1-1.427,0s-.079-1.238.154-1.262a8.378,8.378,0,0,0,1.543,0S1327.21,1396.512,1326.971,1397.158Z" transform="translate(-1318.032 -1356.252)" fill="#747fbb"/>
              <path id="パス_12738" data-name="パス 12738" d="M1284.167,1380.638a.256.256,0,0,1,.173.294c-.055.213-.193.781-.384.9s-.684.538-1.363-.241c0,0-.218-1.063-.046-1.229A1.928,1.928,0,0,0,1284.167,1380.638Z" transform="translate(-1278.853 -1341.447)" fill="#747fbb"/>
            </g>
            <path id="パス_12739" data-name="パス 12739" d="M1323.5,1062.9s-1.173,3.682-1.173,4.092a60.683,60.683,0,0,0,3.221,5.308.625.625,0,0,0,.543-.618s-2.019-4.5-2.209-4.827l1.718-3.955Z" transform="translate(-1315.32 -1050.895)" fill="#fc9e6d"/>
            <path id="パス_12740" data-name="パス 12740" d="M1328.651,1018.452a23.973,23.973,0,0,1,.647-3.1c.514-1.606,2.724-3.574,3.341-.892,0,0,.371.57-.569,2.785-.428,1.011-.689,1.235-.957,1.842A2.1,2.1,0,0,1,1328.651,1018.452Z" transform="translate(-1321.107 -1005.357)" fill="#2a004d"/>
            <path id="パス_12741" data-name="パス 12741" d="M1358.634,1165.594s.578.705.658.848c.27.472.513,1.417.12,1.527-.254.07-.836-.8-.982-1.055s-.474-.552-.509-.939Z" transform="translate(-1347.896 -1144.887)" fill="#fc9e6d"/>
            <path id="パス_12742" data-name="パス 12742" d="M1292.1,936.61s-.326,3.645-.543,4.72.073,6.364-1.673,7.127a4.1,4.1,0,0,0,.655-1.527,3.611,3.611,0,0,1-2.945,1.855,9.028,9.028,0,0,0,.366-3.128s-.779-8.926.289-10S1292.1,936.61,1292.1,936.61Z" transform="translate(-1283.527 -934.157)" fill="#250a0a"/>
          </g>
        </g>
      </g>
    </g>
    <text id="実施しています" transform="translate(2347.229 92.847)" fill="#333" font-size="28" font-family="HiraKakuStd-W8, Hiragino Kaku Gothic Std"><tspan x="0" y="0">実施しています</tspan></text>
    <text id="個別無料相談" transform="translate(2345.229 58.847)" fill="#333" font-size="32" font-family="HiraKakuStd-W8, Hiragino Kaku Gothic Std"><tspan x="0" y="0">個別無料相談</tspan></text>
    <text id="お気軽にお申し込みください_" data-name="お気軽にお申し込みください！" transform="translate(2345.229 115.847)" fill="#333" font-size="14" font-family="HiraKakuStd-W8, Hiragino Kaku Gothic Std"><tspan x="0" y="0">お気軽にお申し込みください！</tspan></text>
  </g>
</svg>
