<svg xmlns="http://www.w3.org/2000/svg" width="12.741" height="14.561" viewBox="0 0 12.741 14.561">
  <defs>
    <style>
      .cls-1 {
        fill: #fff;
      }
    </style>
  </defs>
  <path id="Icon_awesome-calendar" data-name="Icon awesome-calendar" class="cls-1" d="M.341,5.461H12.4a.342.342,0,0,1,.341.341V13.2a1.365,1.365,0,0,1-1.365,1.365H1.365A1.365,1.365,0,0,1,0,13.2V5.8A.342.342,0,0,1,.341,5.461Zm12.4-1.251V3.185A1.365,1.365,0,0,0,11.376,1.82H10.011V.341A.342.342,0,0,0,9.67,0H8.532a.342.342,0,0,0-.341.341V1.82H4.55V.341A.342.342,0,0,0,4.209,0H3.072A.342.342,0,0,0,2.73.341V1.82H1.365A1.365,1.365,0,0,0,0,3.185V4.209a.342.342,0,0,0,.341.341H12.4A.342.342,0,0,0,12.741,4.209Z"/>
</svg>
