<svg xmlns="http://www.w3.org/2000/svg" width="38.049" height="40" viewBox="0 0 38.049 40">
  <defs>
    <style>
      .cls-1 {
        fill: #ccc;
      }

      .cls-2 {
        fill: #0087da;
      }

      .cls-3 {
        fill: #006cbe;
      }
    </style>
  </defs>
  <g id="icon" transform="translate(-14.186)">
    <path id="パス_21014" data-name="パス 21014" class="cls-1" d="M47.419,12.514A4.159,4.159,0,1,0,43.546,9.83L38.5,13.6a6.031,6.031,0,0,0-5.57-1.418L30.136,6a3.541,3.541,0,1,0-1.867.9l2.763,6.112A6.1,6.1,0,0,0,28.5,16.52l-4.78-.405A4.588,4.588,0,1,0,23.53,18.4l4.8.407a6.1,6.1,0,0,0,2.774,4.432L30.165,25.6l-.875,2.2a5.717,5.717,0,1,0,2.255.891l.884-2.221.937-2.352a6.049,6.049,0,0,0,6.087-2.6l4.221,2.05a3.226,3.226,0,1,0,3.171-2.637,3.214,3.214,0,0,0-2.423,1.1L40.2,19.975a6.072,6.072,0,0,0-.323-4.536l5.045-3.769A4.116,4.116,0,0,0,47.419,12.514Z" transform="translate(0)"/>
    <path id="パス_21015" data-name="パス 21015" class="cls-1" d="M47.419,12.514A4.159,4.159,0,1,0,43.546,9.83L38.5,13.6a6.031,6.031,0,0,0-5.57-1.418L30.136,6a3.541,3.541,0,1,0-1.867.9l2.763,6.112A6.1,6.1,0,0,0,28.5,16.52l-4.78-.405A4.588,4.588,0,1,0,23.53,18.4l4.8.407a6.1,6.1,0,0,0,2.774,4.432L30.165,25.6l-.875,2.2a5.717,5.717,0,1,0,2.255.891l.884-2.221.937-2.352a6.049,6.049,0,0,0,6.087-2.6l4.221,2.05a3.226,3.226,0,1,0,3.171-2.637,3.214,3.214,0,0,0-2.423,1.1L40.2,19.975a6.072,6.072,0,0,0-.323-4.536l5.045-3.769A4.116,4.116,0,0,0,47.419,12.514Z" transform="translate(0)"/>
    <circle id="楕円形_86" data-name="楕円形 86" class="cls-2" cx="6.5" cy="6.5" r="6.5" transform="translate(21.893 27)"/>
    <circle id="楕円形_87" data-name="楕円形 87" class="cls-3" cx="4" cy="4" r="4" transform="translate(23.879)"/>
    <circle id="楕円形_88" data-name="楕円形 88" class="cls-2" cx="5" cy="5" r="5" transform="translate(42.234 3)"/>
    <circle id="楕円形_89" data-name="楕円形 89" class="cls-3" cx="3.5" cy="3.5" r="3.5" transform="translate(43.234 20.382)"/>
    <circle id="楕円形_84" data-name="楕円形 84" class="cls-3" cx="6.5" cy="6.5" r="6.5" transform="translate(27.673 11.571)"/>
    <circle id="楕円形_85" data-name="楕円形 85" class="cls-3" cx="5" cy="5" r="5" transform="translate(14.186 11.613)"/>
  </g>
</svg>
