<svg xmlns="http://www.w3.org/2000/svg" width="51.429" height="40" viewBox="0 0 51.429 40">
  <defs>
    <style>
      .cls-1 {
        fill: #0087da;
      }

      .cls-2 {
        fill: #006cbe;
      }

      .cls-3 {
        fill: #ccc;
      }
    </style>
  </defs>
  <g id="グループ_9173" data-name="グループ 9173" transform="translate(-1724.967 -1565)">
    <rect id="長方形_2055" data-name="長方形 2055" class="cls-1" width="26" height="25" transform="translate(1747 1578)"/>
    <rect id="長方形_2056" data-name="長方形 2056" class="cls-2" width="26" height="25" transform="translate(1727 1578)"/>
    <path id="Icon_awesome-id-card" data-name="Icon awesome-id-card" class="cls-3" d="M47.143,2.25H4.286A4.287,4.287,0,0,0,0,6.536V7.964H51.429V6.536A4.287,4.287,0,0,0,47.143,2.25ZM0,37.964A4.287,4.287,0,0,0,4.286,42.25H47.143a4.287,4.287,0,0,0,4.286-4.286V10.821H0ZM31.429,17.25a.716.716,0,0,1,.714-.714H45a.716.716,0,0,1,.714.714v1.429a.716.716,0,0,1-.714.714H32.143a.716.716,0,0,1-.714-.714Zm0,5.714a.716.716,0,0,1,.714-.714H45a.716.716,0,0,1,.714.714v1.429a.716.716,0,0,1-.714.714H32.143a.716.716,0,0,1-.714-.714Zm0,5.714a.716.716,0,0,1,.714-.714H45a.716.716,0,0,1,.714.714v1.429a.716.716,0,0,1-.714.714H32.143a.716.716,0,0,1-.714-.714ZM15.714,16.536A5.714,5.714,0,1,1,10,22.25,5.72,5.72,0,0,1,15.714,16.536ZM5.991,34.768a5.722,5.722,0,0,1,5.437-3.946h.732a9.2,9.2,0,0,0,7.107,0H20a5.722,5.722,0,0,1,5.438,3.946,1.406,1.406,0,0,1-1.393,1.768H7.384A1.409,1.409,0,0,1,5.991,34.768Z" transform="translate(1724.967 1562.75)"/>
  </g>
</svg>
