<svg id="Icon" xmlns="http://www.w3.org/2000/svg" width="41.125" height="37.976" viewBox="0 0 41.125 37.976">
  <defs>
    <style>
      .cls-1 {
        fill: #006cbe;
      }

      .cls-2 {
        fill: #0087da;
      }
    </style>
  </defs>
  <path id="パス_103" data-name="パス 103" class="cls-1" d="M13.065,4.507c5.351,0,9.891,2.759,9.891,8.11V14.2h0V42.279a.2.2,0,0,1-.376.069v-.01c-1.019-3.383-3.778-6.686-8.14-6.973a12.554,12.554,0,0,0-9.208,3.669,1.066,1.066,0,0,1-.653.287H4.134c-.366,0-.752-.267-.752-.6V10.056C3.372,6.881,7.714,4.507,13.065,4.507Z" transform="translate(-3.382 -4.497)"/>
  <path id="パス_104" data-name="パス 104" class="cls-2" d="M28.594,4.5c-5.351,0-9.891,2.759-9.891,8.11v1.582h0V42.272a.2.2,0,0,0,.376.069v-.01c1.019-3.383,3.9-6.716,8.14-6.973,3.254-.2,6.32,1.088,9.208,3.669a1.125,1.125,0,0,0,.653.287h.445c.366,0,.752-.267.752-.6V10.039C38.286,6.874,33.945,4.5,28.594,4.5Z" transform="translate(2.848 -4.5)"/>
</svg>
