<svg id="icon" xmlns="http://www.w3.org/2000/svg" width="36.113" height="41.272" viewBox="0 0 36.113 41.272">
  <defs>
    <style>
      .cls-1 {
        fill: #006cbe;
      }

      .cls-2 {
        fill: #ccc;
      }
    </style>
  </defs>
  <rect id="長方形_86" data-name="長方形 86" class="cls-1" width="28.413" height="19.484" transform="translate(5.984 5.521)"/>
  <path id="Icon_awesome-book" data-name="Icon awesome-book" class="cls-2" d="M36.113,29.02V1.935A1.93,1.93,0,0,0,34.179,0H7.739A7.741,7.741,0,0,0,0,7.739v25.8a7.741,7.741,0,0,0,7.739,7.739h26.44a1.93,1.93,0,0,0,1.935-1.935v-1.29a1.95,1.95,0,0,0-.717-1.507,17.977,17.977,0,0,1,0-6.022A1.921,1.921,0,0,0,36.113,29.02ZM10.318,10.8a.485.485,0,0,1,.484-.484H27.891a.485.485,0,0,1,.484.484v1.612a.485.485,0,0,1-.484.484H10.8a.485.485,0,0,1-.484-.484Zm0,5.159a.485.485,0,0,1,.484-.484H27.891a.485.485,0,0,1,.484.484v1.612a.485.485,0,0,1-.484.484H10.8a.485.485,0,0,1-.484-.484ZM30.745,36.113H7.739a2.58,2.58,0,1,1,0-5.159H30.745A29.021,29.021,0,0,0,30.745,36.113Z"/>
</svg>
