<svg id="icom" xmlns="http://www.w3.org/2000/svg" width="45.213" height="40.189" viewBox="0 0 45.213 40.189">
  <defs>
    <style>
      .cls-1 {
        fill: #006cbe;
        stroke: #707070;
      }

      .cls-2 {
        fill: #0087da;
      }

      .cls-3 {
        fill: #ccc;
      }

      .cls-4 {
        stroke: none;
      }

      .cls-5 {
        fill: none;
      }
    </style>
  </defs>
  <g id="長方形_1927" data-name="長方形 1927" class="cls-1" transform="translate(3.137 14)">
    <rect class="cls-4" width="40" height="25"/>
    <rect class="cls-5" x="0.5" y="0.5" width="39" height="24"/>
  </g>
  <circle id="楕円形_3" data-name="楕円形 3" class="cls-2" cx="6" cy="6" r="6" transform="translate(18.137 4)"/>
  <path id="Icon_awesome-hospital-alt" data-name="Icon awesome-hospital-alt" class="cls-3" d="M42.7,7.536H32.654V2.512A2.509,2.509,0,0,0,30.142,0H15.071a2.509,2.509,0,0,0-2.512,2.512V7.536H2.512A2.509,2.509,0,0,0,0,10.047V38.933a1.26,1.26,0,0,0,1.256,1.256h42.7a1.26,1.26,0,0,0,1.256-1.256V10.047A2.509,2.509,0,0,0,42.7,7.536ZM12.559,34.224a.945.945,0,0,1-.942.942H8.477a.945.945,0,0,1-.942-.942v-3.14a.945.945,0,0,1,.942-.942h3.14a.945.945,0,0,1,.942.942Zm0-10.047a.945.945,0,0,1-.942.942H8.477a.945.945,0,0,1-.942-.942v-3.14a.945.945,0,0,1,.942-.942h3.14a.945.945,0,0,1,.942.942ZM25.118,34.224a.945.945,0,0,1-.942.942h-3.14a.945.945,0,0,1-.942-.942v-3.14a.945.945,0,0,1,.942-.942h3.14a.945.945,0,0,1,.942.942Zm0-10.047a.945.945,0,0,1-.942.942h-3.14a.945.945,0,0,1-.942-.942v-3.14a.945.945,0,0,1,.942-.942h3.14a.945.945,0,0,1,.942.942Zm1.256-13.344a.472.472,0,0,1-.471.471H23.862v2.041a.472.472,0,0,1-.471.471h-1.57a.472.472,0,0,1-.471-.471V11.3H19.31a.472.472,0,0,1-.471-.471V9.262a.472.472,0,0,1,.471-.471h2.041V6.751a.472.472,0,0,1,.471-.471h1.57a.472.472,0,0,1,.471.471V8.791H25.9a.472.472,0,0,1,.471.471Zm11.3,23.391a.945.945,0,0,1-.942.942H33.6a.945.945,0,0,1-.942-.942v-3.14a.945.945,0,0,1,.942-.942h3.14a.945.945,0,0,1,.942.942Zm0-10.047a.945.945,0,0,1-.942.942H33.6a.945.945,0,0,1-.942-.942v-3.14a.945.945,0,0,1,.942-.942h3.14a.945.945,0,0,1,.942.942Z" transform="translate(0)"/>
</svg>
