<svg xmlns="http://www.w3.org/2000/svg" width="19.875" height="19.875" viewBox="0 0 19.875 19.875">
  <path id="Icon_awesome-check-circle" data-name="Icon awesome-check-circle" d="M20.438,10.5A9.938,9.938,0,1,1,10.5.563,9.937,9.937,0,0,1,20.438,10.5ZM9.351,15.762l7.373-7.373a.641.641,0,0,0,0-.907l-.907-.907a.641.641,0,0,0-.907,0L8.9,12.588,6.09,9.781a.641.641,0,0,0-.907,0l-.907.907a.641.641,0,0,0,0,.907l4.167,4.167a.641.641,0,0,0,.907,0Z" transform="translate(-0.563 -0.563)" fill="#0087da"/>
</svg>
