<svg id="icon" xmlns="http://www.w3.org/2000/svg" xmlns:xlink="http://www.w3.org/1999/xlink" width="52.364" height="40" viewBox="0 0 52.364 40">
  <defs>
    <style>
      .cls-1 {
        fill: none;
      }

      .cls-2 {
        clip-path: url(#clip-path);
      }

      .cls-3 {
        fill: #0087da;
      }

      .cls-4 {
        fill: #006cbe;
      }

      .cls-5 {
        fill: #ccc;
      }
    </style>
    <clipPath id="clip-path">
      <rect id="長方形_2004" data-name="長方形 2004" class="cls-1" width="52.364" height="40"/>
    </clipPath>
  </defs>
  <g id="グループ_7769" data-name="グループ 7769" class="cls-2">
    <path id="前面オブジェクトで型抜き_2" data-name="前面オブジェクトで型抜き 2" class="cls-3" d="M15593.47,13154.724h-15v-5.967l5.036-5.033h9.964v11Z" transform="translate(-15575.011 -13133.511)"/>
    <path id="パス_21007" data-name="パス 21007" class="cls-4" d="M264.2,0H239.093a1.475,1.475,0,0,0-1.475,1.476V24.662a1.475,1.475,0,0,0,1.475,1.476H264.2a1.476,1.476,0,0,0,1.476-1.476V1.476A1.476,1.476,0,0,0,264.2,0" transform="translate(-213.316)"/>
    <path id="パス_21008" data-name="パス 21008" class="cls-5" d="M73.048,293.894a4.971,4.971,0,1,0,4.971,4.97,4.972,4.972,0,0,0-4.971-4.97m0,7.209a2.237,2.237,0,1,1,2.237-2.238,2.238,2.238,0,0,1-2.237,2.238" transform="translate(-61.115 -263.836)"/>
    <path id="パス_21009" data-name="パス 21009" class="cls-5" d="M360.171,293.894a4.971,4.971,0,1,0,4.971,4.97,4.971,4.971,0,0,0-4.971-4.97m0,7.209a2.237,2.237,0,1,1,2.237-2.238,2.237,2.237,0,0,1-2.237,2.238" transform="translate(-318.872 -263.836)"/>
    <path id="パス_21010" data-name="パス 21010" class="cls-5" d="M20.467,68.177H9.256a1.226,1.226,0,0,0-.944.443L.286,78.25A1.224,1.224,0,0,0,0,79.038V91.9a1.23,1.23,0,0,0,1.23,1.23H5a7.593,7.593,0,0,1,13.871,0H21.7V69.407a1.231,1.231,0,0,0-1.232-1.23M4.493,79.164a1.266,1.266,0,0,1,.284-.8L9.9,72.055a1.269,1.269,0,0,1,.985-.469h5.019a1.268,1.268,0,0,1,1.269,1.269v7.16a1.268,1.268,0,0,1-1.269,1.269H5.761a1.268,1.268,0,0,1-1.268-1.269Z" transform="translate(0 -61.204)"/>
    <path id="パス_21011" data-name="パス 21011" class="cls-5" d="M237.461,278.346a.692.692,0,0,0-.692.692v2.076a.691.691,0,0,0,.692.692h9.457a7.64,7.64,0,0,1,3.111-3.461Z" transform="translate(-212.554 -249.879)"/>
    <path id="パス_21012" data-name="パス 21012" class="cls-5" d="M447.654,278.346h-6.463a7.641,7.641,0,0,1,3.111,3.461h3.352a.691.691,0,0,0,.692-.692v-2.076a.692.692,0,0,0-.692-.692" transform="translate(-396.069 -249.879)"/>
  </g>
</svg>
