<svg xmlns="http://www.w3.org/2000/svg" xmlns:xlink="http://www.w3.org/1999/xlink" width="36.164" height="40.248" viewBox="0 0 36.164 40.248">
  <defs>
    <clipPath id="clip-path">
      <path id="Icon_awesome-file-pdf" data-name="Icon awesome-file-pdf" d="M17.131,20.132c-.471-1.258-.461-3.687-.188-3.687C17.734,16.445,17.658,19.346,17.131,20.132Zm-.16,3.71A33.711,33.711,0,0,1,14.3,28.771,39.48,39.48,0,0,1,20.22,27.05,10.937,10.937,0,0,1,16.971,23.842ZM8.109,33.653c0,.063,1.243-.424,3.287-3.16C10.764,30.988,8.655,32.419,8.109,33.653ZM23.356,12.578H36.164V38.362a2.094,2.094,0,0,1-2.26,1.887H2.26A2.094,2.094,0,0,1,0,38.362V1.887A2.094,2.094,0,0,1,2.26,0H21.1V10.691A2.105,2.105,0,0,0,23.356,12.578ZM22.6,26.083a8.338,8.338,0,0,1-4.021-4.229c.424-1.454,1.092-3.663.584-5.047-.443-2.311-3.993-2.083-4.5-.535-.471,1.439-.038,3.467.763,6.053a69.214,69.214,0,0,1-3.842,6.745c-.009,0-.009.008-.019.008-2.552,1.093-6.931,3.5-5.133,5.345a3.211,3.211,0,0,0,2.025.786c1.686,0,3.362-1.415,5.754-4.858a61.989,61.989,0,0,1,7.44-1.824,16.414,16.414,0,0,0,6.027,1.533c2.75,0,2.938-2.516,1.855-3.412C28.225,25.58,24.42,25.886,22.6,26.083ZM35.5,8.254,26.275.55a2.505,2.505,0,0,0-1.6-.55h-.565V10.062H36.164v-.48A1.738,1.738,0,0,0,35.5,8.254ZM28.526,28.323c.386-.212-.235-.935-4.031-.707C27.989,28.858,28.526,28.323,28.526,28.323Z" transform="translate(452 6640)" fill="#006cbe"/>
    </clipPath>
  </defs>
  <g id="icon" transform="translate(-452 -6640)">
    <path id="Icon_awesome-file-pdf-2" data-name="Icon awesome-file-pdf" d="M23.356,12.578H36.164V38.362a2.094,2.094,0,0,1-2.26,1.887H2.26A2.094,2.094,0,0,1,0,38.362V1.887A2.094,2.094,0,0,1,2.26,0H21.1V10.691A2.105,2.105,0,0,0,23.356,12.578ZM35.5,8.254,26.275.55a2.505,2.505,0,0,0-1.6-.55h-.565V10.062H36.164v-.48A1.738,1.738,0,0,0,35.5,8.254Z" transform="translate(452 6640)" fill="#006cbe"/>
    <g id="マスクグループ_21" data-name="マスクグループ 21" clip-path="url(#clip-path)">
      <rect id="長方形_4996" data-name="長方形 4996" width="17" height="16" transform="translate(474 6635)" fill="#52be00"/>
    </g>
    <text id="E_PUB" data-name="E PUB" transform="translate(455 6666)" fill="#fff" font-size="10" font-family="Arial-BoldMT, Arial" font-weight="700"><tspan x="0" y="0">E PUB</tspan></text>
  </g>
</svg>
