<svg id="Icon" xmlns="http://www.w3.org/2000/svg" width="46.673" height="40" viewBox="0 0 46.673 40">
  <path id="パス_105" data-name="パス 105" d="M6.813,19.3v9.893a.864.864,0,0,0,.427.747l14.087,8.1a.856.856,0,0,0,1.281-.747V27.282a.864.864,0,0,0-.427-.747L8.094,18.542A.869.869,0,0,0,6.813,19.3Z" transform="translate(0.011 1.845)" fill="#006cbe"/>
  <path id="パス_106" data-name="パス 106" d="M20.184,38.074l14.1-8.1a.852.852,0,0,0,.427-.747v-10a.857.857,0,0,0-1.281-.747l-14.087,8.1a.852.852,0,0,0-.427.747v10.01A.844.844,0,0,0,20.184,38.074Z" transform="translate(5.135 1.81)" fill="#0087da"/>
  <path id="パス_107" data-name="パス 107" d="M24.823,4.647,2.739,17.481a.826.826,0,0,0,0,1.441L24.823,31.133a1.684,1.684,0,0,0,1.656,0L46.073,19.969c.552-.321.729.083.729.726V36.6c0,.7.406,1.037,1.146,1.037h0A1.024,1.024,0,0,0,48.99,36.6V18.787a.839.839,0,0,0-.417-.726L26.479,4.647A1.684,1.684,0,0,0,24.823,4.647Z" transform="translate(-2.317 -4.43)" fill="#ccc"/>
</svg>
