<svg xmlns="http://www.w3.org/2000/svg" xmlns:xlink="http://www.w3.org/1999/xlink" width="560" height="87.1" viewBox="0 0 560 87.1">
  <defs>
    <style>
      .cls-1 {
        fill: #1a1311;
      }

      .cls-2 {
        fill: url(#linear-gradient);
      }

      .cls-3 {
        fill: url(#linear-gradient-2);
      }

      .cls-4 {
        fill: url(#linear-gradient-3);
      }

      .cls-5 {
        fill: url(#linear-gradient-4);
      }

      .cls-6 {
        fill: #fff;
      }
    </style>
    <linearGradient id="linear-gradient" y1="0.5" x2="1" y2="0.5" gradientUnits="objectBoundingBox">
      <stop offset="0.039" stop-color="#1a1a1a"/>
      <stop offset="0.364" stop-color="#878788"/>
    </linearGradient>
    <linearGradient id="linear-gradient-2" x1="0.192" y1="0.5" x2="0.98" y2="0.5" gradientUnits="objectBoundingBox">
      <stop offset="0" stop-color="#0f5917"/>
      <stop offset="0.133" stop-color="#6dad19"/>
      <stop offset="1" stop-color="#8cb808"/>
    </linearGradient>
    <linearGradient id="linear-gradient-3" y1="0.5" x2="1" y2="0.5" gradientUnits="objectBoundingBox">
      <stop offset="0" stop-color="#0054a6"/>
      <stop offset="1" stop-color="#0092e5"/>
    </linearGradient>
    <linearGradient id="linear-gradient-4" y1="0.5" x2="1" y2="0.5" gradientUnits="objectBoundingBox">
      <stop offset="0.133" stop-color="#6dad19"/>
      <stop offset="1" stop-color="#8cb808"/>
    </linearGradient>
  </defs>
  <g id="logo.png" transform="translate(280 43.55)">
    <g id="グループ_979" data-name="グループ 979" transform="translate(-280 -43.55)">
      <path id="パス_1777" data-name="パス 1777" class="cls-1" d="M199.112,38.37a3.427,3.427,0,0,1-1.381,2.836,3.835,3.835,0,0,1-2.355.894H171.089a3.411,3.411,0,0,1-2.84-1.341,3.759,3.759,0,0,1-.9-2.389V27.183a3.432,3.432,0,0,1,1.346-2.871,3.759,3.759,0,0,1,2.391-.858V38.363h24.287V23.454a3.415,3.415,0,0,1,2.841,1.342,3.752,3.752,0,0,1,.895,2.386Z" transform="translate(32.33 4.531)"/>
      <path id="パス_1778" data-name="パス 1778" class="cls-1" d="M291.168,38.363a3.443,3.443,0,0,1-1.384,2.841,3.823,3.823,0,0,1-2.353.9H263.144a3.411,3.411,0,0,1-2.841-1.341,3.756,3.756,0,0,1-.895-2.389V23.454h3.736V38.363Z" transform="translate(50.114 4.531)"/>
      <path id="パス_1779" data-name="パス 1779" class="cls-1" d="M337.2,38.37a3.429,3.429,0,0,1-1.383,2.836,3.826,3.826,0,0,1-2.352.894h-24.29a3.412,3.412,0,0,1-2.841-1.341,3.764,3.764,0,0,1-.9-2.389V27.183a3.435,3.435,0,0,1,1.345-2.871,3.767,3.767,0,0,1,2.392-.858V38.363h24.29V23.454A3.407,3.407,0,0,1,336.3,24.8a3.755,3.755,0,0,1,.9,2.386Z" transform="translate(59.005 4.531)"/>
      <path id="パス_1780" data-name="パス 1780" class="cls-1" d="M152.188,24.8a3.411,3.411,0,0,0-2.84-1.342H125.061a3.757,3.757,0,0,0-2.392.858,3.432,3.432,0,0,0-1.345,2.871v27.9a3.761,3.761,0,0,0,.9,2.389,3.408,3.408,0,0,0,2.841,1.341V42.1h24.287a3.832,3.832,0,0,0,2.354-.894,3.43,3.43,0,0,0,1.383-2.836V27.183A3.748,3.748,0,0,0,152.188,24.8Zm-2.84,13.567H125.061V27.191h24.287Z" transform="translate(23.438 4.531)"/>
      <path id="パス_1781" data-name="パス 1781" class="cls-1" d="M383.225,38.363a3.441,3.441,0,0,1-1.382,2.841,3.832,3.832,0,0,1-2.355.9H355.2a3.408,3.408,0,0,1-2.878-1.383,3.818,3.818,0,0,1-.859-2.354h28.024V34.627H355.2a3.443,3.443,0,0,1-2.841-1.377,3.817,3.817,0,0,1-.9-2.349V27.179a3.431,3.431,0,0,1,1.345-2.867,3.76,3.76,0,0,1,2.392-.858h24.287a3.4,3.4,0,0,1,2.84,1.346,3.763,3.763,0,0,1,.9,2.391H355.2v3.7h24.287a3.407,3.407,0,0,1,2.84,1.345,3.771,3.771,0,0,1,.9,2.392Z" transform="translate(67.897 4.531)"/>
      <path id="パス_1782" data-name="パス 1782" class="cls-1" d="M245.15,27.18V38.37a3.462,3.462,0,0,1-1.349,2.836,3.7,3.7,0,0,1-2.323.895h-28.1V23.45h28.1a3.352,3.352,0,0,1,2.81,1.381A3.8,3.8,0,0,1,245.15,27.18Zm-3.673,3.707v-3.7H217.121v3.7Zm0,7.475V34.625H217.121v3.737Z" transform="translate(41.221 4.53)"/>
      <g id="グループ_970" data-name="グループ 970">
        <g id="グループ_966" data-name="グループ 966">
          <g id="グループ_965" data-name="グループ 965">
            <path id="パス_1783" data-name="パス 1783" class="cls-2" d="M93.818,17.617V2.133H83.935V17.617H75.5V27.5h8.432V42.985h9.884V27.5h15.745V17.617Z" transform="translate(14.586 0.412)"/>
            <path id="パス_1784" data-name="パス 1784" class="cls-3" d="M80.348,3.29A14.074,14.074,0,0,0,70.768,0H61.656a27.01,27.01,0,0,0-6.784.667,9.081,9.081,0,0,0-4.507,2.676c-2.125,2.29-3.2,5.453-3.2,9.4v23.1H34.613c-3.109,0-4.965,1.846-4.965,4.936,0,2.892,1.771,4.737,4.739,4.936H47.164V77.993c0,4.628,2.28,6.87,4.192,7.937A9.529,9.529,0,0,0,55.718,87.1h.006l1.686-.019V45.725H71.457a12.648,12.648,0,0,0,12.9-12.9v-20A11.958,11.958,0,0,0,80.348,3.29ZM57.41,14.07a17.6,17.6,0,0,1,.161-2.663c.218-.723.8-1.532,3.186-1.532h9.111c4.551,0,4.6,1.969,4.619,3v20.08a2.576,2.576,0,0,1-.562,1.959c-.592.61-1.793.934-3.476.934H57.41Z" transform="translate(5.727 0)"/>
            <path id="パス_1785" data-name="パス 1785" class="cls-4" d="M36.954.381,35.292.4V35.8H12.905A12.655,12.655,0,0,0,0,48.684a11.955,11.955,0,0,0,4.015,9.528A14.067,14.067,0,0,0,13.6,61.5h17.45a27.1,27.1,0,0,0,6.786-.666,9.115,9.115,0,0,0,4.505-2.676c2.124-2.29,3.2-5.455,3.2-9.4V9.49C45.538.485,37.316.381,36.954.381Zm-5.01,51.245H14.494c-4.55,0-4.594-1.984-4.619-3.062a2.568,2.568,0,0,1,.563-1.958c.589-.612,1.792-.934,3.473-.934H35.292v1.759a17.751,17.751,0,0,1-.161,2.661C34.911,50.816,34.333,51.626,31.944,51.626Z" transform="translate(0 0.074)"/>
          </g>
        </g>
        <g id="グループ_967" data-name="グループ 967" transform="translate(69.286 57.671)">
          <rect id="長方形_351" data-name="長方形 351" class="cls-5" width="54.862" height="15.009"/>
        </g>
        <g id="グループ_969" data-name="グループ 969" transform="translate(72.492 59.992)">
          <path id="パス_1786" data-name="パス 1786" class="cls-6" d="M95.629,57.121h6.526a1.435,1.435,0,0,0,1.2-.564,1.585,1.585,0,0,0,.377-1v-.124c0-1.73-1.378-3.3-3.8-3.3H94.769c-2.42,0-3.8,1.563-3.8,3.288V57.87c0,1.729.946,2.477,2.731,2.477h8.349a1.584,1.584,0,0,0,1.007-.362,1.448,1.448,0,0,0,.566-1.209v0h-10c-.653,0-1.081-.268-1.081-.883v-.77Zm-.86-3.472h5.156c.805,0,2.23.527,2.23,1.779v.12H92.539v-.126C92.543,54.175,93.965,53.648,94.769,53.648Z" transform="translate(-54.919 -49.922)"/>
          <path id="パス_1787" data-name="パス 1787" class="cls-6" d="M62.544,50.279H60.755v8.592a1.845,1.845,0,0,0,.44,1.173,1.673,1.673,0,0,0,1.395.66H72.748a1.876,1.876,0,0,0,1.157-.441,1.6,1.6,0,0,0,.679-1.348H62.544Z" transform="translate(-60.755 -50.279)"/>
          <path id="パス_1788" data-name="パス 1788" class="cls-6" d="M84.645,54.358h6.564a1.681,1.681,0,0,0-1.7-1.7H84.645V50.732l-1.833,1.025v.9H78.946v1.7h3.866v4.429a1.841,1.841,0,0,0,.44,1.171,1.669,1.669,0,0,0,1.392.659H85.8a1.875,1.875,0,0,0,1.155-.44,1.688,1.688,0,0,0,.678-1.392H84.645Z" transform="translate(-57.241 -50.191)"/>
          <g id="グループ_968" data-name="グループ 968" transform="translate(17.176 0.642)">
            <rect id="長方形_352" data-name="長方形 352" class="cls-6" width="1.773" height="7.451" transform="translate(0.004 2.331)"/>
            <rect id="長方形_353" data-name="長方形 353" class="cls-6" width="1.761" height="1.761"/>
          </g>
        </g>
      </g>
      <g id="グループ_978" data-name="グループ 978" transform="translate(455.242 26.645)">
        <g id="グループ_971" data-name="グループ 971" transform="translate(27.465)">
          <rect id="長方形_354" data-name="長方形 354" class="cls-5" width="77.293" height="21.145"/>
        </g>
        <g id="グループ_973" data-name="グループ 973" transform="translate(31.98 3.272)">
          <path id="パス_1789" data-name="パス 1789" class="cls-6" d="M457.471,34.711h9.192a2.023,2.023,0,0,0,1.685-.8,2.225,2.225,0,0,0,.531-1.415v-.175c0-2.436-1.941-4.649-5.357-4.649h-7.263c-3.409,0-5.349,2.2-5.357,4.633v3.458c0,2.435,1.333,3.489,3.847,3.489H466.51a2.24,2.24,0,0,0,1.419-.508,2.04,2.04,0,0,0,.8-1.7v0H454.639c-.919,0-1.523-.378-1.523-1.244V34.711Zm-1.212-4.891h7.263c1.135,0,3.142.741,3.142,2.5V32.5H453.117v-.178C453.123,30.56,455.125,29.82,456.259,29.82Z" transform="translate(-400.114 -24.57)"/>
          <path id="パス_1790" data-name="パス 1790" class="cls-6" d="M410.858,25.073h-2.521v12.1a2.6,2.6,0,0,0,.622,1.651,2.354,2.354,0,0,0,1.965.929h14.311a2.644,2.644,0,0,0,1.629-.62,2.258,2.258,0,0,0,.957-1.9H410.858Z" transform="translate(-408.337 -25.073)"/>
          <path id="パス_1791" data-name="パス 1791" class="cls-6" d="M441.995,30.82h9.246a2.367,2.367,0,0,0-2.388-2.394h-6.858V25.711l-2.582,1.443v1.273h-5.446V30.82h5.446v6.239a2.6,2.6,0,0,0,.619,1.649,2.356,2.356,0,0,0,1.963.927h1.63a2.646,2.646,0,0,0,1.626-.619,2.379,2.379,0,0,0,.955-1.963h-4.211Z" transform="translate(-403.386 -24.95)"/>
          <g id="グループ_972" data-name="グループ 972" transform="translate(24.199 0.904)">
            <rect id="長方形_355" data-name="長方形 355" class="cls-6" width="2.498" height="10.497" transform="translate(0.005 3.284)"/>
            <rect id="長方形_356" data-name="長方形 356" class="cls-6" width="2.481" height="2.481"/>
          </g>
        </g>
        <g id="グループ_977" data-name="グループ 977" transform="translate(0 1.287)">
          <g id="グループ_976" data-name="グループ 976" transform="translate(2.281 1.792)">
            <g id="グループ_975" data-name="グループ 975">
              <g id="グループ_974" data-name="グループ 974">
                <path id="パス_1792" data-name="パス 1792" class="cls-1" d="M386.092,29.073a4.148,4.148,0,0,0-.271-.834c-.28-.718-.464-.91-.865-.91h-.774V28.39a4.164,4.164,0,0,0,.04.683h-.776a4.119,4.119,0,0,0,.042-.678V25.589a4.662,4.662,0,0,0-.042-.677c.218.01.381.016.666.016h1.25c.791,0,1.244.395,1.244,1.083a1.068,1.068,0,0,1-.266.776,1.1,1.1,0,0,1-.577.3c.328.1.426.249.943,1.468.042.094.172.376.245.517Zm-.864-2.339a.7.7,0,0,0,.494-.187.617.617,0,0,0,.167-.458c0-.375-.214-.568-.641-.568h-1.067v1.213Z" transform="translate(-383.447 -24.912)"/>
              </g>
            </g>
          </g>
          <path id="パス_1793" data-name="パス 1793" class="cls-1" d="M385.406,31.154a3.872,3.872,0,1,1,3.874-3.872A3.876,3.876,0,0,1,385.406,31.154Zm0-7.266a3.395,3.395,0,1,0,3.4,3.395A3.4,3.4,0,0,0,385.406,23.887Z" transform="translate(-381.535 -23.41)"/>
        </g>
      </g>
    </g>
  </g>
</svg>
