<svg xmlns="http://www.w3.org/2000/svg" xmlns:xlink="http://www.w3.org/1999/xlink" width="86.854" height="60" viewBox="0 0 86.854 60">
  <defs>
    <clipPath id="clip-path">
      <path id="Icon_awesome-book-open" data-name="Icon awesome-book-open" d="M72.617,2.257C65.278,2.673,50.691,4.19,41.686,9.7a2.059,2.059,0,0,0-.974,1.764V60.2A2.119,2.119,0,0,0,43.83,62c9.265-4.663,22.664-5.936,29.289-6.284a4.177,4.177,0,0,0,4.02-4.106V6.368a4.2,4.2,0,0,0-4.523-4.112ZM35.454,9.7c-9-5.512-23.591-7.027-30.93-7.445A4.2,4.2,0,0,0,0,6.368V51.615a4.175,4.175,0,0,0,4.02,4.106c6.628.348,20.034,1.622,29.3,6.288a2.113,2.113,0,0,0,3.108-1.8V11.442A2.016,2.016,0,0,0,35.454,9.7Z" transform="translate(517 6686.75)"/>
    </clipPath>
  </defs>
  <g id="icon" transform="translate(-516 -6689)">
    <path id="Icon_awesome-book-open-2" data-name="Icon awesome-book-open" d="M72.617,2.257C65.278,2.673,50.691,4.19,41.686,9.7a2.059,2.059,0,0,0-.974,1.764V60.2A2.119,2.119,0,0,0,43.83,62c9.265-4.663,22.664-5.936,29.289-6.284a4.177,4.177,0,0,0,4.02-4.106V6.368a4.2,4.2,0,0,0-4.523-4.112ZM35.454,9.7c-9-5.512-23.591-7.027-30.93-7.445A4.2,4.2,0,0,0,0,6.368V51.615a4.175,4.175,0,0,0,4.02,4.106c6.628.348,20.034,1.622,29.3,6.288a2.113,2.113,0,0,0,3.108-1.8V11.442A2.016,2.016,0,0,0,35.454,9.7Z" transform="translate(516 6686.75)"/>
    <g id="マスクグループ_26" data-name="マスクグループ 26" transform="translate(-1)" clip-path="url(#clip-path)">
      <g id="長方形_5007" data-name="長方形 5007" transform="translate(504 6678)" fill="#0087da" stroke="#707070" stroke-width="1">
        <rect width="51" height="80" stroke="none"/>
        <rect x="0.5" y="0.5" width="50" height="79" fill="none"/>
      </g>
      <g id="長方形_5008" data-name="長方形 5008" transform="translate(556 6678)" fill="#006cbe" stroke="#707070" stroke-width="1">
        <rect width="51" height="80" stroke="none"/>
        <rect x="0.5" y="0.5" width="50" height="79" fill="none"/>
      </g>
    </g>
    <g id="長方形_5010" data-name="長方形 5010" transform="translate(576 6692)" fill="#fff" stroke="#707070" stroke-width="1">
      <rect width="23" height="17" stroke="none"/>
      <rect x="0.5" y="0.5" width="22" height="16" fill="none"/>
    </g>
    <path id="Icon_material-chat" data-name="Icon material-chat" d="M30,3H6A3,3,0,0,0,3.015,6L3,33l6-6H30a3.009,3.009,0,0,0,3-3V6A3.009,3.009,0,0,0,30,3ZM9,13.5H27v3H9ZM21,21H9V18H21Zm6-9H9V9H27Z" transform="translate(569.854 6686)" fill="#ccc"/>
  </g>
</svg>
