<svg xmlns="http://www.w3.org/2000/svg" xmlns:xlink="http://www.w3.org/1999/xlink" width="77.14" height="59.999" viewBox="0 0 77.14 59.999">
  <defs>
    <clipPath id="clip-path">
      <path id="Icon_awesome-book-open" data-name="Icon awesome-book-open" d="M72.617,2.257C65.278,2.673,50.691,4.19,41.686,9.7a2.059,2.059,0,0,0-.974,1.764V60.2A2.119,2.119,0,0,0,43.83,62c9.265-4.663,22.664-5.936,29.289-6.284a4.177,4.177,0,0,0,4.02-4.106V6.368a4.2,4.2,0,0,0-4.523-4.112ZM35.454,9.7c-9-5.512-23.591-7.027-30.93-7.445A4.2,4.2,0,0,0,0,6.368V51.615a4.175,4.175,0,0,0,4.02,4.106c6.628.348,20.034,1.622,29.3,6.288a2.113,2.113,0,0,0,3.108-1.8V11.442A2.016,2.016,0,0,0,35.454,9.7Z" transform="translate(517 6686.75)"/>
    </clipPath>
  </defs>
  <g id="icon" transform="translate(-517 -6689)">
    <path id="Icon_awesome-book-open-2" data-name="Icon awesome-book-open" d="M72.617,2.257C65.278,2.673,50.691,4.19,41.686,9.7a2.059,2.059,0,0,0-.974,1.764V60.2A2.119,2.119,0,0,0,43.83,62c9.265-4.663,22.664-5.936,29.289-6.284a4.177,4.177,0,0,0,4.02-4.106V6.368a4.2,4.2,0,0,0-4.523-4.112ZM35.454,9.7c-9-5.512-23.591-7.027-30.93-7.445A4.2,4.2,0,0,0,0,6.368V51.615a4.175,4.175,0,0,0,4.02,4.106c6.628.348,20.034,1.622,29.3,6.288a2.113,2.113,0,0,0,3.108-1.8V11.442A2.016,2.016,0,0,0,35.454,9.7Z" transform="translate(517 6686.75)"/>
    <g id="マスクグループ_23" data-name="マスクグループ 23" clip-path="url(#clip-path)">
      <g id="長方形_4997" data-name="長方形 4997" transform="translate(504 6678)" fill="#0087da" stroke="#707070" stroke-width="1">
        <rect width="51" height="80" stroke="none"/>
        <rect x="0.5" y="0.5" width="50" height="79" fill="none"/>
      </g>
      <g id="長方形_4998" data-name="長方形 4998" transform="translate(556 6678)" fill="#006cbe" stroke="#707070" stroke-width="1">
        <rect width="51" height="80" stroke="none"/>
        <rect x="0.5" y="0.5" width="50" height="79" fill="none"/>
      </g>
    </g>
    <path id="パス_46391" data-name="パス 46391" d="M523.719,6698.79s4.47-.2,13.667,2.516a39.309,39.309,0,0,1,9.928,4.613" transform="translate(0 20)" fill="none" stroke="#fff" stroke-linecap="round" stroke-width="4"/>
    <path id="パス_46390" data-name="パス 46390" d="M523.719,6698.79s4.47-.2,13.667,2.516a39.309,39.309,0,0,1,9.928,4.613" transform="translate(0 29)" fill="none" stroke="#fff" stroke-linecap="round" stroke-width="4"/>
    <path id="パス_46388" data-name="パス 46388" d="M523.719,6698.79s4.47-.2,13.667,2.516a39.309,39.309,0,0,1,9.928,4.613" transform="translate(0 2)" fill="none" stroke="#fff" stroke-linecap="round" stroke-width="4"/>
    <path id="パス_46389" data-name="パス 46389" d="M523.719,6698.79s4.47-.2,13.667,2.516a39.309,39.309,0,0,1,9.928,4.613" transform="translate(0 11)" fill="none" stroke="#fff" stroke-linecap="round" stroke-width="4"/>
    <path id="パス_46392" data-name="パス 46392" d="M585.842,6698.618v35.051" transform="translate(0.658)" fill="none" stroke="#fff" stroke-linecap="round" stroke-width="4"/>
    <path id="パス_46395" data-name="パス 46395" d="M585.842,6698.618v35.051" transform="translate(-13.342 2)" fill="none" stroke="#fff" stroke-linecap="round" stroke-width="4"/>
    <path id="パス_46393" data-name="パス 46393" d="M585.842,6698.618v35.051" transform="translate(-6.342 1.25)" fill="none" stroke="#fff" stroke-linecap="round" stroke-width="4"/>
    <path id="パス_46394" data-name="パス 46394" d="M585.842,6698.618v35.051" transform="translate(-21.342 3.25)" fill="none" stroke="#fff" stroke-linecap="round" stroke-width="4"/>
  </g>
</svg>
