<svg xmlns="http://www.w3.org/2000/svg" width="80" height="80" viewBox="0 0 80 80">
  <g id="グループ_23214" data-name="グループ 23214" transform="translate(-920 -6698.164)">
    <circle id="楕円形_238" data-name="楕円形 238" cx="40" cy="40" r="40" transform="translate(920 6698.164)" fill="#fff"/>
    <path id="Icon_metro-cross" data-name="Icon metro-cross" d="M39.635,32.135h0L27.5,20,39.635,7.865h0a1.253,1.253,0,0,0,0-1.767L33.9.365a1.253,1.253,0,0,0-1.767,0h0L20,12.5,7.865.365h0A1.253,1.253,0,0,0,6.1.365L.365,6.1a1.253,1.253,0,0,0,0,1.767h0L12.5,20,.365,32.135h0a1.253,1.253,0,0,0,0,1.767L6.1,39.635a1.253,1.253,0,0,0,1.767,0h0L20,27.5,32.135,39.635h0a1.253,1.253,0,0,0,1.767,0L39.635,33.9a1.253,1.253,0,0,0,0-1.767Z" transform="translate(932 6738.416) rotate(-45)" fill="#52be00"/>
  </g>
</svg>
