<svg xmlns="http://www.w3.org/2000/svg" width="63.75" height="60" viewBox="0 0 63.75 60">
  <path id="Icon_awesome-highlighter" data-name="Icon awesome-highlighter" d="M0,56.247,11.709,60l4.154-4.154L8.007,47.989ZM14.6,28.121a4.288,4.288,0,0,0-1.264,4.465l1.529,5.019L8.9,43.575,20.176,54.852l5.96-5.96,5.009,1.533a4.288,4.288,0,0,0,4.471-1.263l4.166-4.88L19.468,23.968,14.6,28.121ZM61.865,9.29,54.459,1.883a6.432,6.432,0,0,0-8.8-.275L22.33,21.525l19.895,19.9L62.14,18.094a6.432,6.432,0,0,0-.275-8.8Z" transform="translate(0 0)" fill="#ccc"/>
</svg>
