<svg xmlns="http://www.w3.org/2000/svg" width="54.721" height="59.999" viewBox="0 0 54.721 59.999">
  <path id="Icon_awesome-sticky-note" data-name="Icon awesome-sticky-note" d="M38.109,40.821H54.721V5.464A3.075,3.075,0,0,0,51.789,2.25H2.931A3.075,3.075,0,0,0,0,5.464V59.035a3.075,3.075,0,0,0,2.931,3.214H35.178V44.035A3.092,3.092,0,0,1,38.109,40.821Zm15.757,7.366L41.9,61.312a2.8,2.8,0,0,1-2.076.937h-.733V45.106H54.721v.817A3.368,3.368,0,0,1,53.866,48.187Z" transform="translate(0 -2.25)" fill="#006cbe"/>
</svg>
