<svg xmlns="http://www.w3.org/2000/svg" width="45.552" height="40.001" viewBox="0 0 45.552 40.001">
  <path id="Icon_feather-triangle" data-name="Icon feather-triangle" d="M23.607,2.846a6,6,0,0,1,5.1,2.874l.006.009L45.57,33.865l.016.027a5.969,5.969,0,0,1-5.1,8.954H6.731a5.969,5.969,0,0,1-5.1-8.954l.016-.027L18.5,5.729l.006-.009A6,6,0,0,1,23.607,2.846Zm1.7,4.933a1.99,1.99,0,0,0-3.4,0L5.067,35.894a1.99,1.99,0,0,0,1.7,2.973H40.447a1.99,1.99,0,0,0,1.7-2.973Z" transform="translate(-0.83 -2.846)" fill="#969696"/>
</svg>
