<svg xmlns="http://www.w3.org/2000/svg" xmlns:xlink="http://www.w3.org/1999/xlink" width="77.14" height="59.999" viewBox="0 0 77.14 59.999">
  <defs>
    <clipPath id="clip-path">
      <path id="Icon_awesome-book-open" data-name="Icon awesome-book-open" d="M72.617,2.257C65.278,2.673,50.691,4.19,41.686,9.7a2.059,2.059,0,0,0-.974,1.764V60.2A2.119,2.119,0,0,0,43.83,62c9.265-4.663,22.664-5.936,29.289-6.284a4.177,4.177,0,0,0,4.02-4.106V6.368a4.2,4.2,0,0,0-4.523-4.112ZM35.454,9.7c-9-5.512-23.591-7.027-30.93-7.445A4.2,4.2,0,0,0,0,6.368V51.615a4.175,4.175,0,0,0,4.02,4.106c6.628.348,20.034,1.622,29.3,6.288a2.113,2.113,0,0,0,3.108-1.8V11.442A2.016,2.016,0,0,0,35.454,9.7Z" transform="translate(517 6686.75)"/>
    </clipPath>
  </defs>
  <g id="icon" transform="translate(-517 -6689)">
    <path id="Icon_awesome-book-open-2" data-name="Icon awesome-book-open" d="M72.617,2.257C65.278,2.673,50.691,4.19,41.686,9.7a2.059,2.059,0,0,0-.974,1.764V60.2A2.119,2.119,0,0,0,43.83,62c9.265-4.663,22.664-5.936,29.289-6.284a4.177,4.177,0,0,0,4.02-4.106V6.368a4.2,4.2,0,0,0-4.523-4.112ZM35.454,9.7c-9-5.512-23.591-7.027-30.93-7.445A4.2,4.2,0,0,0,0,6.368V51.615a4.175,4.175,0,0,0,4.02,4.106c6.628.348,20.034,1.622,29.3,6.288a2.113,2.113,0,0,0,3.108-1.8V11.442A2.016,2.016,0,0,0,35.454,9.7Z" transform="translate(517 6686.75)"/>
    <g id="マスクグループ_23" data-name="マスクグループ 23" clip-path="url(#clip-path)">
      <g id="長方形_4997" data-name="長方形 4997" transform="translate(504 6678)" fill="#0087da" stroke="#707070" stroke-width="1">
        <rect width="51" height="80" stroke="none"/>
        <rect x="0.5" y="0.5" width="50" height="79" fill="none"/>
      </g>
      <g id="長方形_4998" data-name="長方形 4998" transform="translate(556 6678)" fill="#006cbe" stroke="#707070" stroke-width="1">
        <rect width="51" height="80" stroke="none"/>
        <rect x="0.5" y="0.5" width="50" height="79" fill="none"/>
      </g>
    </g>
  </g>
</svg>
