<svg id="グループ_20345" data-name="グループ 20345" xmlns="http://www.w3.org/2000/svg" width="54.721" height="59.999" viewBox="0 0 54.721 59.999">
  <path id="Icon_awesome-sticky-note" data-name="Icon awesome-sticky-note" d="M38.109,40.821H54.721V5.464A3.075,3.075,0,0,0,51.789,2.25H2.931A3.075,3.075,0,0,0,0,5.464V59.035a3.075,3.075,0,0,0,2.931,3.214H35.178V44.035A3.092,3.092,0,0,1,38.109,40.821Zm15.757,7.366L41.9,61.312a2.8,2.8,0,0,1-2.076.937h-.733V45.106H54.721v.817A3.368,3.368,0,0,1,53.866,48.187Z" transform="translate(0 -2.25)" fill="#006cbe"/>
  <g id="楕円形_237" data-name="楕円形 237" transform="translate(20.221 6)" fill="#fff" stroke="#707070" stroke-width="1">
    <circle cx="13.5" cy="13.5" r="13.5" stroke="none"/>
    <circle cx="13.5" cy="13.5" r="13" fill="none"/>
  </g>
  <path id="合体_4" data-name="合体 4" d="M30.727,33.1l-6.172-6.171A15.119,15.119,0,0,1,0,15.114,15.118,15.118,0,0,1,25.807,4.427,15.116,15.116,0,0,1,26.93,24.549L33.1,30.721A1.679,1.679,0,1,1,30.727,33.1ZM3.361,15.114A11.751,11.751,0,0,0,23.3,23.55c.039-.047.078-.092.121-.135s.088-.083.133-.121a11.753,11.753,0,1,0-20.191-8.18Z" transform="translate(21.535 2.569) rotate(9)" fill="#ccc"/>
</svg>
