<svg xmlns="http://www.w3.org/2000/svg" xmlns:xlink="http://www.w3.org/1999/xlink" width="60" height="59.999" viewBox="0 0 60 59.999">
  <defs>
    <clipPath id="clip-path">
      <path id="Icon_awesome-book-reader" data-name="Icon awesome-book-reader" d="M41.249,11.25A11.25,11.25,0,1,0,30,22.5,11.25,11.25,0,0,0,41.249,11.25Zm-13.876,17C20.421,24,9.159,22.828,3.492,22.505A3.242,3.242,0,0,0,0,25.68V51.789a3.223,3.223,0,0,0,3.1,3.17c5.116.268,15.467,1.252,22.621,4.855a1.631,1.631,0,0,0,2.4-1.391V29.6a1.559,1.559,0,0,0-.752-1.343Zm29.133-5.748c-5.666.321-16.929,1.492-23.88,5.748a1.588,1.588,0,0,0-.751,1.363v28.8a1.636,1.636,0,0,0,2.407,1.394c7.153-3.6,17.5-4.583,22.613-4.851A3.225,3.225,0,0,0,60,51.791V25.68A3.244,3.244,0,0,0,56.507,22.505Z"/>
    </clipPath>
  </defs>
  <g id="マスクグループ_22" data-name="マスクグループ 22" clip-path="url(#clip-path)">
    <path id="パス_46387" data-name="パス 46387" d="M2.551,4.778C14.551-5.722,48,0,48,0V42H0S-9.449,15.278,2.551,4.778Z" transform="translate(31 22)" fill="#006cbe"/>
    <circle id="楕円形_235" data-name="楕円形 235" cx="15" cy="15" r="15" transform="translate(17 -6)" fill="#ccc"/>
    <path id="パス_46386" data-name="パス 46386" d="M0,0S31.553-9.195,43.553,1.305c.012.01,2.839,1.336,3.038,1.515C51.39,9.183,48,42,48,42H0Z" transform="translate(-20 22)" fill="#0087da"/>
  </g>
</svg>
